<svg width="64" height="80" viewBox="0 0 64 80" fill="none" xmlns="http://www.w3.org/2000/svg">
<path d="M57.6534 29.6212L34.3707 6.34391C33.725 5.70117 32.8511 5.34033 31.94 5.34033C31.029 5.34033 30.155 5.70117 29.5094 6.34391L24.6854 11.1732L30.816 17.3066C31.5394 17.0622 32.3167 17.0253 33.0599 17.2003C33.8031 17.3752 34.4824 17.7549 35.0207 18.2964C35.5591 18.8378 35.9349 19.5192 36.1057 20.2634C36.2764 21.0075 36.2352 21.7846 35.9867 22.5066L41.8907 28.4186C42.7648 28.1119 43.7173 28.1117 44.5915 28.4182C45.4656 28.7247 46.2095 29.3196 46.7007 30.1049C47.1919 30.8903 47.4013 31.8195 47.2943 32.7397C47.1873 33.6598 46.7704 34.5162 46.112 35.1679C44.5147 36.7679 41.936 36.7679 40.336 35.1679C39.7677 34.599 39.3794 33.8753 39.2196 33.0872C39.0598 32.299 39.1356 31.4813 39.4374 30.7359L33.9067 25.2346V39.7332C34.296 39.9226 34.6694 40.1839 34.992 40.5066C35.7545 41.2744 36.1824 42.3125 36.1824 43.3946C36.1824 44.4766 35.7545 45.5148 34.992 46.2826C34.6116 46.6636 34.1598 46.9659 33.6624 47.1722C33.165 47.3785 32.6318 47.4846 32.0934 47.4846C31.5549 47.4846 31.0217 47.3785 30.5244 47.1722C30.027 46.9659 29.5751 46.6636 29.1947 46.2826C28.8151 45.9041 28.5139 45.4543 28.3084 44.9592C28.1029 44.4641 27.9972 43.9333 27.9972 43.3972C27.9972 42.8612 28.1029 42.3304 28.3084 41.8352C28.5139 41.3401 28.8151 40.8904 29.1947 40.5119C29.6 40.1119 30.0534 39.8079 30.5387 39.6079V24.9679C30.0401 24.7638 29.5869 24.4629 29.2053 24.0825C28.8237 23.7022 28.5213 23.25 28.3155 22.7521C28.1096 22.2542 28.0046 21.7204 28.0063 21.1817C28.008 20.6429 28.1164 20.1098 28.3254 19.6132L22.2987 13.5572L6.33337 29.5092C5.00004 30.8532 5.00004 33.0292 6.33337 34.3732L29.616 57.6506C29.9346 57.9699 30.313 58.2233 30.7297 58.3962C31.1463 58.5691 31.593 58.6581 32.044 58.6581C32.4951 58.6581 32.9418 58.5691 33.3584 58.3962C33.7751 58.2233 34.1535 57.9699 34.472 57.6506L57.6454 34.4799C57.9663 34.1622 58.2212 33.7841 58.3954 33.3675C58.5697 32.9508 58.6597 32.5038 58.6605 32.0522C58.6612 31.6006 58.5726 31.1534 58.3998 30.7361C58.2269 30.3189 57.9733 29.94 57.6534 29.6212Z" fill="white"/>
<path d="M30.5706 70.08C30.2613 69.4293 29.8133 68.928 29.2266 68.576C28.64 68.2133 27.9573 68.032 27.1786 68.032C26.4 68.032 25.696 68.2133 25.0666 68.576C24.448 68.928 23.9573 69.44 23.5946 70.112C23.2426 70.7733 23.0666 71.5413 23.0666 72.416C23.0666 73.2907 23.2426 74.0587 23.5946 74.72C23.9573 75.3813 24.448 75.8933 25.0666 76.256C25.696 76.608 26.4 76.784 27.1786 76.784C28.2666 76.784 29.1626 76.4587 29.8666 75.808C30.5706 75.1573 30.9813 74.2773 31.0986 73.168H26.6506V71.984H32.6506V73.104C32.5653 74.0213 32.2773 74.864 31.7866 75.632C31.296 76.3893 30.6506 76.992 29.8506 77.44C29.0506 77.8773 28.16 78.096 27.1786 78.096C26.144 78.096 25.2 77.856 24.3466 77.376C23.4933 76.8853 22.816 76.208 22.3146 75.344C21.824 74.48 21.5786 73.504 21.5786 72.416C21.5786 71.328 21.824 70.352 22.3146 69.488C22.816 68.6133 23.4933 67.936 24.3466 67.456C25.2 66.9653 26.144 66.72 27.1786 66.72C28.3626 66.72 29.408 67.0133 30.3146 67.6C31.232 68.1867 31.8986 69.0133 32.3146 70.08H30.5706ZM35.3278 67.808C35.0504 67.808 34.8158 67.712 34.6238 67.52C34.4318 67.328 34.3358 67.0933 34.3358 66.816C34.3358 66.5387 34.4318 66.304 34.6238 66.112C34.8158 65.92 35.0504 65.824 35.3278 65.824C35.5944 65.824 35.8184 65.92 35.9998 66.112C36.1918 66.304 36.2878 66.5387 36.2878 66.816C36.2878 67.0933 36.1918 67.328 35.9998 67.52C35.8184 67.712 35.5944 67.808 35.3278 67.808ZM36.0318 69.232V78H34.5758V69.232H36.0318ZM40.2893 70.432V75.6C40.2893 76.0267 40.3799 76.3307 40.5613 76.512C40.7426 76.6827 41.0573 76.768 41.5052 76.768H42.5773V78H41.2653C40.4546 78 39.8466 77.8133 39.4413 77.44C39.0359 77.0667 38.8333 76.4533 38.8333 75.6V70.432H37.6973V69.232H38.8333V67.024H40.2893V69.232H42.5773V70.432H40.2893Z" fill="white"/>
</svg>
