<svg width="64" height="72" viewBox="0 0 64 72" fill="none" xmlns="http://www.w3.org/2000/svg">
<path d="M11.0293 0.0319824H52.9733L49.1573 43.0987L31.9546 47.968L14.8506 43.0987L11.0293 0.0319824ZM25.072 19.504L24.6106 14.0773L44.6986 14.0826L45.16 8.84798L18.84 8.84265L20.232 24.8373H38.4586L37.8106 31.68L32 33.2853L26.096 31.672L25.72 27.4586H20.5093L21.168 35.7867L32 38.6827L42.7413 35.8027L44.2293 19.5066L25.072 19.504Z" fill="white"/>
<path d="M16.5896 58.848V70H15.1336V64.944H9.45363V70H7.99763V58.848H9.45363V63.744H15.1336V58.848H16.5896ZM25.9398 58.848V60.032H22.8998V70H21.4438V60.032H18.3878V58.848H25.9398ZM39.044 58.928V70H37.588V61.744L33.908 70H32.884L29.188 61.728V70H27.732V58.928H29.3L33.396 68.08L37.492 58.928H39.044ZM42.9693 68.816H46.8733V70H41.5133V58.848H42.9693V68.816ZM55.5555 59.696H49.9395V63.344C50.1848 63.0027 50.5475 62.7253 51.0275 62.512C51.5075 62.288 52.0248 62.176 52.5795 62.176C53.4648 62.176 54.1848 62.3627 54.7395 62.736C55.2942 63.0987 55.6888 63.5733 55.9235 64.16C56.1688 64.736 56.2915 65.3493 56.2915 66C56.2915 66.768 56.1475 67.456 55.8595 68.064C55.5715 68.672 55.1288 69.152 54.5315 69.504C53.9448 69.856 53.2142 70.032 52.3395 70.032C51.2195 70.032 50.3128 69.744 49.6195 69.168C48.9262 68.592 48.5048 67.824 48.3555 66.864H49.7795C49.9182 67.472 50.2115 67.9467 50.6595 68.288C51.1075 68.6293 51.6728 68.8 52.3555 68.8C53.1982 68.8 53.8328 68.5493 54.2595 68.048C54.6862 67.536 54.8995 66.864 54.8995 66.032C54.8995 65.2 54.6862 64.56 54.2595 64.112C53.8328 63.6533 53.2035 63.424 52.3715 63.424C51.8062 63.424 51.3102 63.5627 50.8835 63.84C50.4675 64.1067 50.1635 64.4747 49.9715 64.944H48.5955V58.416H55.5555V59.696Z" fill="white"/>
</svg>
