<svg width="64" height="80" viewBox="0 0 64 80" fill="none" xmlns="http://www.w3.org/2000/svg">
<path d="M32 58.6267C31.2667 58.6267 30.5813 58.4294 29.9413 58.088L23.4373 54.2267C22.464 53.6854 22.952 53.488 23.2453 53.3894C24.568 52.9494 24.8133 52.8534 26.1813 52.0747C26.3307 51.976 26.5253 52.0214 26.6747 52.12L31.6613 55.1067C31.8587 55.2027 32.104 55.2027 32.2507 55.1067L51.768 43.808C51.9653 43.712 52.0613 43.5147 52.0613 43.2694V20.7147C52.0613 20.472 51.9653 20.2747 51.768 20.1787L32.2507 8.92802C32.056 8.82936 31.8107 8.82936 31.6613 8.92802L12.1387 20.176C11.944 20.272 11.8453 20.52 11.8453 20.712V43.264C11.8453 43.4587 11.944 43.7067 12.1387 43.8027L17.472 46.888C20.3573 48.3494 22.1707 46.6347 22.1707 44.928V22.672C22.1707 22.3787 22.4133 22.0827 22.7573 22.0827H25.2533C25.5413 22.0827 25.84 22.328 25.84 22.672V44.9307C25.84 48.7947 23.7387 51.048 20.0693 51.048C18.944 51.048 18.064 51.048 15.568 49.8214L10.4347 46.8907C9.80922 46.5271 9.29016 46.0057 8.92936 45.3787C8.56857 44.7516 8.37867 44.0408 8.37866 43.3174V20.7627C8.37866 19.296 9.16 17.9254 10.4347 17.192L29.944 5.89336C30.5773 5.55465 31.2844 5.37744 32.0027 5.37744C32.7209 5.37744 33.428 5.55465 34.0613 5.89336L53.5733 17.192C54.8507 17.9227 55.6293 19.296 55.6293 20.7627V43.3174C55.6293 44.7814 54.848 46.152 53.5733 46.8907L34.0613 58.1867C33.4187 58.48 32.6853 58.6267 32 58.6267ZM38.016 43.1174C29.456 43.1174 27.696 39.2027 27.696 35.88C27.696 35.5867 27.9413 35.2907 28.2827 35.2907H30.8267C31.12 35.2907 31.3627 35.4854 31.3627 35.7814C31.7547 38.3707 32.8773 39.6454 38.0667 39.6454C42.1733 39.6454 43.9387 38.712 43.9387 36.512C43.9387 35.24 43.4453 34.312 37.04 33.6774C31.7093 33.144 28.384 31.9627 28.384 27.7094C28.384 23.7494 31.7093 21.4 37.288 21.4C43.5467 21.4 46.6293 23.5574 47.0187 28.248C47.014 28.4063 46.962 28.5596 46.8693 28.688C46.7707 28.784 46.6267 28.8827 46.48 28.8827H43.9387C43.813 28.88 43.6919 28.8356 43.5943 28.7564C43.4968 28.6772 43.4284 28.5677 43.4 28.4454C42.8107 25.7467 41.296 24.872 37.288 24.872C32.784 24.872 32.2453 26.4374 32.2453 27.6107C32.2453 29.0267 32.8773 29.4667 38.9493 30.2507C44.9653 31.032 47.8027 32.1574 47.8027 36.368C47.7493 40.6747 44.232 43.1174 38.016 43.1174Z" fill="white"/>
<path d="M11.9531 78H10.4971L4.64113 69.12V78H3.18513V66.832H4.64113L10.4971 75.696V66.832H11.9531V78ZM18.2591 78.144C17.4378 78.144 16.6911 77.9573 16.0191 77.584C15.3578 77.2107 14.8351 76.6827 14.4511 76C14.0778 75.3067 13.8911 74.5067 13.8911 73.6C13.8911 72.704 14.0831 71.9147 14.4671 71.232C14.8618 70.5387 15.3951 70.0107 16.0671 69.648C16.7391 69.2747 17.4911 69.088 18.3231 69.088C19.1551 69.088 19.9071 69.2747 20.5791 69.648C21.2511 70.0107 21.7791 70.5333 22.1631 71.216C22.5578 71.8987 22.7551 72.6933 22.7551 73.6C22.7551 74.5067 22.5525 75.3067 22.1471 76C21.7525 76.6827 21.2138 77.2107 20.5311 77.584C19.8485 77.9573 19.0911 78.144 18.2591 78.144ZM18.2591 76.864C18.7818 76.864 19.2725 76.7413 19.7311 76.496C20.1898 76.2507 20.5578 75.8827 20.8351 75.392C21.1231 74.9013 21.2671 74.304 21.2671 73.6C21.2671 72.896 21.1285 72.2987 20.8511 71.808C20.5738 71.3173 20.2111 70.9547 19.7631 70.72C19.3151 70.4747 18.8298 70.352 18.3071 70.352C17.7738 70.352 17.2831 70.4747 16.8351 70.72C16.3978 70.9547 16.0458 71.3173 15.7791 71.808C15.5125 72.2987 15.3791 72.896 15.3791 73.6C15.3791 74.3147 15.5071 74.9173 15.7631 75.408C16.0298 75.8987 16.3818 76.2667 16.8191 76.512C17.2565 76.7467 17.7365 76.864 18.2591 76.864ZM24.1255 73.584C24.1255 72.688 24.3068 71.904 24.6695 71.232C25.0322 70.5493 25.5282 70.0213 26.1575 69.648C26.7975 69.2747 27.5122 69.088 28.3015 69.088C28.9842 69.088 29.6188 69.248 30.2055 69.568C30.7922 69.8773 31.2402 70.288 31.5495 70.8V66.16H33.0215V78H31.5495V76.352C31.2615 76.8747 30.8348 77.3067 30.2695 77.648C29.7042 77.9787 29.0428 78.144 28.2855 78.144C27.5068 78.144 26.7975 77.952 26.1575 77.568C25.5282 77.184 25.0322 76.6453 24.6695 75.952C24.3068 75.2587 24.1255 74.4693 24.1255 73.584ZM31.5495 73.6C31.5495 72.9387 31.4162 72.3627 31.1495 71.872C30.8828 71.3813 30.5202 71.008 30.0615 70.752C29.6135 70.4853 29.1175 70.352 28.5735 70.352C28.0295 70.352 27.5335 70.48 27.0855 70.736C26.6375 70.992 26.2802 71.3653 26.0135 71.856C25.7468 72.3467 25.6135 72.9227 25.6135 73.584C25.6135 74.256 25.7468 74.8427 26.0135 75.344C26.2802 75.8347 26.6375 76.2133 27.0855 76.48C27.5335 76.736 28.0295 76.864 28.5735 76.864C29.1175 76.864 29.6135 76.736 30.0615 76.48C30.5202 76.2133 30.8828 75.8347 31.1495 75.344C31.4162 74.8427 31.5495 74.2613 31.5495 73.6ZM43.482 73.28C43.482 73.5573 43.466 73.8507 43.434 74.16H36.426C36.4793 75.024 36.7727 75.7013 37.306 76.192C37.85 76.672 38.506 76.912 39.274 76.912C39.9033 76.912 40.426 76.768 40.842 76.48C41.2687 76.1813 41.5673 75.7867 41.738 75.296H43.306C43.0713 76.1387 42.602 76.8267 41.898 77.36C41.194 77.8827 40.3193 78.144 39.274 78.144C38.442 78.144 37.6953 77.9573 37.034 77.584C36.3833 77.2107 35.8713 76.6827 35.498 76C35.1247 75.3067 34.938 74.5067 34.938 73.6C34.938 72.6933 35.1193 71.8987 35.482 71.216C35.8447 70.5333 36.3513 70.0107 37.002 69.648C37.6633 69.2747 38.4207 69.088 39.274 69.088C40.106 69.088 40.842 69.2693 41.482 69.632C42.122 69.9947 42.6127 70.496 42.954 71.136C43.306 71.7653 43.482 72.48 43.482 73.28ZM41.978 72.976C41.978 72.4213 41.8553 71.9467 41.61 71.552C41.3647 71.1467 41.0287 70.8427 40.602 70.64C40.186 70.4267 39.722 70.32 39.21 70.32C38.474 70.32 37.8447 70.5547 37.322 71.024C36.81 71.4933 36.5167 72.144 36.442 72.976H41.978ZM51.0199 66.848V75.088C51.0199 76.0053 50.7372 76.7413 50.1719 77.296C49.6065 77.84 48.8599 78.112 47.9319 78.112C46.9932 78.112 46.2412 77.8347 45.6759 77.28C45.1105 76.7147 44.8279 75.9467 44.8279 74.976H46.2839C46.2945 75.52 46.4332 75.9627 46.6999 76.304C46.9772 76.6453 47.3879 76.816 47.9319 76.816C48.4759 76.816 48.8812 76.656 49.1479 76.336C49.4145 76.0053 49.5479 75.5893 49.5479 75.088V66.848H51.0199ZM57.4243 78.112C56.6883 78.112 56.0269 77.984 55.4403 77.728C54.8643 77.4613 54.4109 77.0987 54.0803 76.64C53.7496 76.1707 53.5789 75.632 53.5683 75.024H55.1203C55.1736 75.5467 55.3869 75.9893 55.7603 76.352C56.1443 76.704 56.6989 76.88 57.4243 76.88C58.1176 76.88 58.6616 76.7093 59.0563 76.368C59.4616 76.016 59.6643 75.568 59.6643 75.024C59.6643 74.5973 59.5469 74.2507 59.3123 73.984C59.0776 73.7173 58.7843 73.5147 58.4323 73.376C58.0803 73.2373 57.6056 73.088 57.0083 72.928C56.2723 72.736 55.6803 72.544 55.2323 72.352C54.7949 72.16 54.4163 71.8613 54.0963 71.456C53.7869 71.04 53.6323 70.4853 53.6323 69.792C53.6323 69.184 53.7869 68.6453 54.0963 68.176C54.4056 67.7067 54.8376 67.344 55.3923 67.088C55.9576 66.832 56.6029 66.704 57.3283 66.704C58.3736 66.704 59.2269 66.9653 59.8883 67.488C60.5603 68.0107 60.9389 68.704 61.0243 69.568H59.4243C59.3709 69.1413 59.1469 68.768 58.7523 68.448C58.3576 68.1173 57.8349 67.952 57.1843 67.952C56.5763 67.952 56.0803 68.112 55.6963 68.432C55.3123 68.7413 55.1203 69.1787 55.1203 69.744C55.1203 70.1493 55.2323 70.48 55.4563 70.736C55.6909 70.992 55.9736 71.1893 56.3043 71.328C56.6456 71.456 57.1203 71.6053 57.7283 71.776C58.4643 71.9787 59.0563 72.1813 59.5043 72.384C59.9523 72.576 60.3363 72.88 60.6562 73.296C60.9763 73.7013 61.1363 74.256 61.1363 74.96C61.1363 75.504 60.9923 76.016 60.7043 76.496C60.4163 76.976 59.9896 77.3653 59.4243 77.664C58.8589 77.9627 58.1923 78.112 57.4243 78.112Z" fill="white"/>
</svg>
