<svg width="64" height="80" viewBox="0 0 64 80" fill="none" xmlns="http://www.w3.org/2000/svg">
<path d="M32 5.33325C46.7254 5.33325 58.6667 17.2746 58.6667 31.9999C58.6667 46.7253 46.7254 58.6666 32 58.6666C17.2747 58.6666 5.33337 46.7253 5.33337 31.9999C5.33337 17.2746 17.2747 5.33325 32 5.33325ZM26.7014 40.8853C27.0907 42.3172 27.048 43.6559 26.6454 44.8666L26.5014 45.2666C26.1645 46.0729 25.6889 46.8139 25.096 47.4559C23.544 49.1439 21.3787 49.7812 20.4507 49.2452C19.4507 48.6612 19.9494 46.2799 21.7494 44.3786C23.6854 42.3386 26.4587 41.0239 26.4587 41.0239V41.0186L26.7014 40.8853ZM48.7227 16.7493C47.5174 12.0106 39.664 10.4506 32.2294 13.0933C27.8134 14.6639 23.0214 17.1333 19.5814 20.3546C15.4854 24.1786 14.8347 27.5119 15.1014 28.9039C16.048 33.8186 22.784 37.0319 25.5547 39.4159V39.4292C24.736 39.8266 18.76 42.8266 17.3627 45.9306C15.8614 49.1973 17.5974 51.5333 18.7307 51.8293C22.232 52.7973 25.8294 51.0293 27.7654 48.1652C29.6294 45.3626 29.4667 41.7652 28.664 39.9972C29.7654 39.6986 31.0614 39.5653 32.728 39.7679C37.3974 40.2986 38.3307 43.2346 38.1254 44.4346C37.928 45.6319 36.9627 46.3306 36.6294 46.5306C36.2934 46.7332 36.1947 46.7999 36.2267 46.9333C36.2614 47.1306 36.4294 47.1306 36.6934 47.1012C37.0614 47.0346 39.1307 46.1013 39.2294 43.8293C39.328 40.9653 36.5947 37.7679 31.728 37.8293C29.728 37.8666 28.4587 38.0319 27.56 38.3999C27.4994 38.3059 27.4194 38.2259 27.3254 38.1652C24.3254 34.9306 18.7574 32.6639 18.992 28.3653C19.0587 26.7973 19.624 22.6666 29.6587 17.6666C37.8934 13.5653 44.4614 14.7013 45.5974 17.1999C47.224 20.7626 42.0934 27.3999 33.528 28.3653C30.2614 28.7333 28.5627 27.4666 28.1254 26.9972C27.6614 26.4959 27.5974 26.4639 27.4294 26.5679C27.16 26.7013 27.328 27.1333 27.4294 27.4026C27.696 28.0666 28.728 29.2372 30.5307 29.8346C32.096 30.3359 35.928 30.6319 40.5307 28.8346C45.696 26.8372 49.728 21.2666 48.5627 16.5999L48.7227 16.7493Z" fill="white"/>
<path d="M17.2914 78.112C16.5554 78.112 15.8941 77.984 15.3074 77.728C14.7314 77.4613 14.2781 77.0987 13.9474 76.64C13.6168 76.1707 13.4461 75.632 13.4354 75.024H14.9874C15.0408 75.5467 15.2541 75.9893 15.6274 76.352C16.0114 76.704 16.5661 76.88 17.2914 76.88C17.9848 76.88 18.5288 76.7093 18.9234 76.368C19.3288 76.016 19.5314 75.568 19.5314 75.024C19.5314 74.5973 19.4141 74.2507 19.1794 73.984C18.9448 73.7173 18.6514 73.5147 18.2994 73.376C17.9474 73.2373 17.4728 73.088 16.8754 72.928C16.1394 72.736 15.5474 72.544 15.0994 72.352C14.6621 72.16 14.2834 71.8613 13.9634 71.456C13.6541 71.04 13.4994 70.4853 13.4994 69.792C13.4994 69.184 13.6541 68.6453 13.9634 68.176C14.2728 67.7067 14.7048 67.344 15.2594 67.088C15.8248 66.832 16.4701 66.704 17.1954 66.704C18.2408 66.704 19.0941 66.9653 19.7554 67.488C20.4274 68.0107 20.8061 68.704 20.8914 69.568H19.2914C19.2381 69.1413 19.0141 68.768 18.6194 68.448C18.2248 68.1173 17.7021 67.952 17.0514 67.952C16.4434 67.952 15.9474 68.112 15.5634 68.432C15.1794 68.7413 14.9874 69.1787 14.9874 69.744C14.9874 70.1493 15.0994 70.48 15.3234 70.736C15.5581 70.992 15.8408 71.1893 16.1714 71.328C16.5128 71.456 16.9874 71.6053 17.5954 71.776C18.3314 71.9787 18.9234 72.1813 19.3714 72.384C19.8194 72.576 20.2034 72.88 20.5234 73.296C20.8434 73.7013 21.0034 74.256 21.0034 74.96C21.0034 75.504 20.8594 76.016 20.5714 76.496C20.2834 76.976 19.8568 77.3653 19.2914 77.664C18.7261 77.9627 18.0594 78.112 17.2914 78.112ZM29.7381 75.52H24.8741L23.9781 78H22.4421L26.4741 66.912H28.1541L32.1701 78H30.6341L29.7381 75.52ZM29.3221 74.336L27.3061 68.704L25.2901 74.336H29.3221ZM37.4633 78.112C36.7273 78.112 36.066 77.984 35.4793 77.728C34.9033 77.4613 34.45 77.0987 34.1193 76.64C33.7886 76.1707 33.618 75.632 33.6073 75.024H35.1593C35.2126 75.5467 35.426 75.9893 35.7993 76.352C36.1833 76.704 36.738 76.88 37.4633 76.88C38.1566 76.88 38.7006 76.7093 39.0953 76.368C39.5006 76.016 39.7033 75.568 39.7033 75.024C39.7033 74.5973 39.586 74.2507 39.3513 73.984C39.1166 73.7173 38.8233 73.5147 38.4713 73.376C38.1193 73.2373 37.6446 73.088 37.0473 72.928C36.3113 72.736 35.7193 72.544 35.2713 72.352C34.834 72.16 34.4553 71.8613 34.1353 71.456C33.826 71.04 33.6713 70.4853 33.6713 69.792C33.6713 69.184 33.826 68.6453 34.1353 68.176C34.4446 67.7067 34.8766 67.344 35.4313 67.088C35.9966 66.832 36.642 66.704 37.3673 66.704C38.4126 66.704 39.266 66.9653 39.9273 67.488C40.5993 68.0107 40.978 68.704 41.0633 69.568H39.4633C39.41 69.1413 39.186 68.768 38.7913 68.448C38.3966 68.1173 37.874 67.952 37.2233 67.952C36.6153 67.952 36.1193 68.112 35.7353 68.432C35.3513 68.7413 35.1593 69.1787 35.1593 69.744C35.1593 70.1493 35.2713 70.48 35.4953 70.736C35.73 70.992 36.0126 71.1893 36.3433 71.328C36.6846 71.456 37.1593 71.6053 37.7673 71.776C38.5033 71.9787 39.0953 72.1813 39.5433 72.384C39.9913 72.576 40.3753 72.88 40.6953 73.296C41.0153 73.7013 41.1753 74.256 41.1753 74.96C41.1753 75.504 41.0313 76.016 40.7433 76.496C40.4553 76.976 40.0286 77.3653 39.4633 77.664C38.898 77.9627 38.2313 78.112 37.4633 78.112ZM46.8539 78.112C46.1179 78.112 45.4566 77.984 44.8699 77.728C44.2939 77.4613 43.8406 77.0987 43.5099 76.64C43.1793 76.1707 43.0086 75.632 42.9979 75.024H44.5499C44.6033 75.5467 44.8166 75.9893 45.1899 76.352C45.5739 76.704 46.1286 76.88 46.8539 76.88C47.5473 76.88 48.0913 76.7093 48.4859 76.368C48.8913 76.016 49.0939 75.568 49.0939 75.024C49.0939 74.5973 48.9766 74.2507 48.7419 73.984C48.5073 73.7173 48.2139 73.5147 47.8619 73.376C47.5099 73.2373 47.0353 73.088 46.4379 72.928C45.7019 72.736 45.1099 72.544 44.6619 72.352C44.2246 72.16 43.8459 71.8613 43.5259 71.456C43.2166 71.04 43.0619 70.4853 43.0619 69.792C43.0619 69.184 43.2166 68.6453 43.5259 68.176C43.8353 67.7067 44.2673 67.344 44.8219 67.088C45.3873 66.832 46.0326 66.704 46.7579 66.704C47.8033 66.704 48.6566 66.9653 49.3179 67.488C49.9899 68.0107 50.3686 68.704 50.4539 69.568H48.8539C48.8006 69.1413 48.5766 68.768 48.1819 68.448C47.7873 68.1173 47.2646 67.952 46.6139 67.952C46.0059 67.952 45.5099 68.112 45.1259 68.432C44.7419 68.7413 44.5499 69.1787 44.5499 69.744C44.5499 70.1493 44.6619 70.48 44.8859 70.736C45.1206 70.992 45.4033 71.1893 45.7339 71.328C46.0753 71.456 46.5499 71.6053 47.1579 71.776C47.8939 71.9787 48.4859 72.1813 48.9339 72.384C49.3819 72.576 49.7659 72.88 50.0859 73.296C50.4059 73.7013 50.5659 74.256 50.5659 74.96C50.5659 75.504 50.4219 76.016 50.1339 76.496C49.8459 76.976 49.4193 77.3653 48.8539 77.664C48.2886 77.9627 47.6219 78.112 46.8539 78.112Z" fill="white"/>
</svg>
