
<svg width="64" height="80" viewBox="0 0 64 80" fill="none" xmlns="http://www.w3.org/2000/svg">
<path d="M6.54856 67.636V68.524H4.26856V76H3.17656V68.524H0.884563V67.636H6.54856ZM13.5568 69.424L9.59675 79.096H8.46875L9.76475 75.928L7.11275 69.424H8.32475L10.3888 74.752L12.4288 69.424H13.5568ZM15.7465 70.636C15.9625 70.26 16.2825 69.948 16.7065 69.7C17.1385 69.444 17.6385 69.316 18.2065 69.316C18.7905 69.316 19.3185 69.456 19.7905 69.736C20.2705 70.016 20.6465 70.412 20.9185 70.924C21.1905 71.428 21.3265 72.016 21.3265 72.688C21.3265 73.352 21.1905 73.944 20.9185 74.464C20.6465 74.984 20.2705 75.388 19.7905 75.676C19.3185 75.964 18.7905 76.108 18.2065 76.108C17.6465 76.108 17.1505 75.984 16.7185 75.736C16.2945 75.48 15.9705 75.164 15.7465 74.788V79.12H14.6545V69.424H15.7465V70.636ZM20.2105 72.688C20.2105 72.192 20.1105 71.76 19.9105 71.392C19.7105 71.024 19.4385 70.744 19.0945 70.552C18.7585 70.36 18.3865 70.264 17.9785 70.264C17.5785 70.264 17.2065 70.364 16.8625 70.564C16.5265 70.756 16.2545 71.04 16.0465 71.416C15.8465 71.784 15.7465 72.212 15.7465 72.7C15.7465 73.196 15.8465 73.632 16.0465 74.008C16.2545 74.376 16.5265 74.66 16.8625 74.86C17.2065 75.052 17.5785 75.148 17.9785 75.148C18.3865 75.148 18.7585 75.052 19.0945 74.86C19.4385 74.66 19.7105 74.376 19.9105 74.008C20.1105 73.632 20.2105 73.192 20.2105 72.688ZM28.7638 72.46C28.7638 72.668 28.7518 72.888 28.7278 73.12H23.4718C23.5118 73.768 23.7318 74.276 24.1318 74.644C24.5398 75.004 25.0318 75.184 25.6078 75.184C26.0798 75.184 26.4718 75.076 26.7838 74.86C27.1038 74.636 27.3278 74.34 27.4558 73.972H28.6318C28.4558 74.604 28.1038 75.12 27.5758 75.52C27.0478 75.912 26.3918 76.108 25.6078 76.108C24.9838 76.108 24.4238 75.968 23.9278 75.688C23.4398 75.408 23.0558 75.012 22.7758 74.5C22.4958 73.98 22.3558 73.38 22.3558 72.7C22.3558 72.02 22.4918 71.424 22.7638 70.912C23.0358 70.4 23.4158 70.008 23.9038 69.736C24.3998 69.456 24.9678 69.316 25.6078 69.316C26.2318 69.316 26.7838 69.452 27.2638 69.724C27.7438 69.996 28.1118 70.372 28.3678 70.852C28.6318 71.324 28.7638 71.86 28.7638 72.46ZM27.6358 72.232C27.6358 71.816 27.5438 71.46 27.3598 71.164C27.1758 70.86 26.9238 70.632 26.6038 70.48C26.2918 70.32 25.9438 70.24 25.5598 70.24C25.0078 70.24 24.5358 70.416 24.1438 70.768C23.7598 71.12 23.5398 71.608 23.4838 72.232H27.6358ZM32.8573 76.084C32.3053 76.084 31.8093 75.988 31.3693 75.796C30.9373 75.596 30.5973 75.324 30.3493 74.98C30.1013 74.628 29.9733 74.224 29.9653 73.768H31.1293C31.1693 74.16 31.3293 74.492 31.6093 74.764C31.8973 75.028 32.3133 75.16 32.8573 75.16C33.3773 75.16 33.7853 75.032 34.0813 74.776C34.3853 74.512 34.5373 74.176 34.5373 73.768C34.5373 73.448 34.4493 73.188 34.2733 72.988C34.0973 72.788 33.8773 72.636 33.6133 72.532C33.3493 72.428 32.9933 72.316 32.5453 72.196C31.9933 72.052 31.5493 71.908 31.2133 71.764C30.8853 71.62 30.6013 71.396 30.3613 71.092C30.1293 70.78 30.0133 70.364 30.0133 69.844C30.0133 69.388 30.1293 68.984 30.3613 68.632C30.5933 68.28 30.9173 68.008 31.3333 67.816C31.7573 67.624 32.2413 67.528 32.7853 67.528C33.5693 67.528 34.2093 67.724 34.7053 68.116C35.2093 68.508 35.4933 69.028 35.5573 69.676H34.3573C34.3173 69.356 34.1493 69.076 33.8533 68.836C33.5573 68.588 33.1653 68.464 32.6773 68.464C32.2213 68.464 31.8493 68.584 31.5613 68.824C31.2733 69.056 31.1293 69.384 31.1293 69.808C31.1293 70.112 31.2133 70.36 31.3813 70.552C31.5573 70.744 31.7693 70.892 32.0173 70.996C32.2733 71.092 32.6293 71.204 33.0853 71.332C33.6373 71.484 34.0813 71.636 34.4173 71.788C34.7533 71.932 35.0413 72.16 35.2812 72.472C35.5213 72.776 35.6413 73.192 35.6413 73.72C35.6413 74.128 35.5333 74.512 35.3173 74.872C35.1013 75.232 34.7813 75.524 34.3573 75.748C33.9333 75.972 33.4333 76.084 32.8573 76.084ZM36.8402 72.7C36.8402 72.02 36.9762 71.428 37.2482 70.924C37.5202 70.412 37.8962 70.016 38.3762 69.736C38.8642 69.456 39.4202 69.316 40.0442 69.316C40.8522 69.316 41.5162 69.512 42.0362 69.904C42.5642 70.296 42.9122 70.84 43.0802 71.536H41.9042C41.7922 71.136 41.5722 70.82 41.2442 70.588C40.9242 70.356 40.5242 70.24 40.0442 70.24C39.4202 70.24 38.9162 70.456 38.5322 70.888C38.1482 71.312 37.9562 71.916 37.9562 72.7C37.9562 73.492 38.1482 74.104 38.5322 74.536C38.9162 74.968 39.4202 75.184 40.0442 75.184C40.5242 75.184 40.9242 75.072 41.2442 74.848C41.5642 74.624 41.7842 74.304 41.9042 73.888H43.0802C42.9042 74.56 42.5522 75.1 42.0242 75.508C41.4962 75.908 40.8362 76.108 40.0442 76.108C39.4202 76.108 38.8642 75.968 38.3762 75.688C37.8962 75.408 37.5202 75.012 37.2482 74.5C36.9762 73.988 36.8402 73.388 36.8402 72.7ZM45.6293 70.492C45.8213 70.116 46.0933 69.824 46.4453 69.616C46.8053 69.408 47.2413 69.304 47.7533 69.304V70.432H47.4653C46.2413 70.432 45.6293 71.096 45.6293 72.424V76H44.5373V69.424H45.6293V70.492ZM49.5778 68.356C49.3698 68.356 49.1938 68.284 49.0498 68.14C48.9058 67.996 48.8338 67.82 48.8338 67.612C48.8338 67.404 48.9058 67.228 49.0498 67.084C49.1938 66.94 49.3698 66.868 49.5778 66.868C49.7778 66.868 49.9458 66.94 50.0818 67.084C50.2258 67.228 50.2978 67.404 50.2978 67.612C50.2978 67.82 50.2258 67.996 50.0818 68.14C49.9458 68.284 49.7778 68.356 49.5778 68.356ZM50.1058 69.424V76H49.0138V69.424H50.1058ZM53.059 70.636C53.275 70.26 53.595 69.948 54.019 69.7C54.451 69.444 54.951 69.316 55.519 69.316C56.103 69.316 56.631 69.456 57.103 69.736C57.583 70.016 57.959 70.412 58.231 70.924C58.503 71.428 58.639 72.016 58.639 72.688C58.639 73.352 58.503 73.944 58.231 74.464C57.959 74.984 57.583 75.388 57.103 75.676C56.631 75.964 56.103 76.108 55.519 76.108C54.959 76.108 54.463 75.984 54.031 75.736C53.607 75.48 53.283 75.164 53.059 74.788V79.12H51.967V69.424H53.059V70.636ZM57.523 72.688C57.523 72.192 57.423 71.76 57.223 71.392C57.023 71.024 56.751 70.744 56.407 70.552C56.071 70.36 55.699 70.264 55.291 70.264C54.891 70.264 54.519 70.364 54.175 70.564C53.839 70.756 53.567 71.04 53.359 71.416C53.159 71.784 53.059 72.212 53.059 72.7C53.059 73.196 53.159 73.632 53.359 74.008C53.567 74.376 53.839 74.66 54.175 74.86C54.519 75.052 54.891 75.148 55.291 75.148C55.699 75.148 56.071 75.052 56.407 74.86C56.751 74.66 57.023 74.376 57.223 74.008C57.423 73.632 57.523 73.192 57.523 72.688ZM61.4083 70.324V74.2C61.4083 74.52 61.4763 74.748 61.6123 74.884C61.7483 75.012 61.9843 75.076 62.3203 75.076H63.1243V76H62.1403C61.5323 76 61.0763 75.86 60.7723 75.58C60.4683 75.3 60.3163 74.84 60.3163 74.2V70.324H59.4643V69.424H60.3163V67.768H61.4083V69.424H63.1243V70.324H61.4083Z" fill="white"/>
<path fill-rule="evenodd" clip-rule="evenodd" d="M6.25 0H57.75C61.2018 0 64 2.79822 64 6.25V57.75C64 61.2018 61.2018 64 57.75 64H6.25C2.79822 64 0 61.2018 0 57.75V6.25C0 2.79822 2.79822 0 6.25 0ZM39.6174 57.1856V50.928C40.752 51.8798 41.9845 52.5935 43.3148 53.0692C44.6451 53.5451 45.9884 53.783 47.3447 53.783C48.1404 53.783 48.8348 53.7114 49.4282 53.5679C50.0216 53.4245 50.5173 53.2257 50.915 52.9715C51.3128 52.7173 51.6095 52.4175 51.8051 52.072C52.0008 51.7265 52.0986 51.3517 52.0986 50.9476C52.0986 50.4 51.9421 49.9111 51.6291 49.481C51.316 49.0508 50.8889 48.6531 50.3476 48.2881C49.8065 47.9231 49.1641 47.5711 48.4207 47.2321C47.6774 46.8931 46.8752 46.5478 46.0145 46.1958C43.8234 45.2831 42.1899 44.1685 41.114 42.8519C40.038 41.5351 39.5 39.9446 39.5 38.0804C39.5 36.6203 39.7935 35.3655 40.3804 34.3161C40.9673 33.2666 41.766 32.403 42.7767 31.725C43.7876 31.0471 44.9581 30.5485 46.2884 30.2291C47.6186 29.9097 49.0271 29.75 50.514 29.75C51.9746 29.75 53.2691 29.838 54.3973 30.014C55.5254 30.19 56.5655 30.4605 57.5175 30.8255V36.6725C57.048 36.3465 56.5361 36.0597 55.9819 35.812C55.4275 35.5644 54.857 35.359 54.2701 35.196C53.6831 35.0331 53.0995 34.9125 52.5191 34.8343C51.9388 34.7561 51.3877 34.717 50.8661 34.717C50.1487 34.717 49.4968 34.7854 48.9098 34.9222C48.3229 35.0591 47.8274 35.2515 47.423 35.4991C47.0187 35.7469 46.7057 36.0434 46.484 36.3889C46.2623 36.7344 46.1514 37.1222 46.1514 37.5524C46.1514 38.0218 46.2754 38.4421 46.5231 38.8138C46.7709 39.1852 47.123 39.5373 47.5795 39.8698C48.036 40.2021 48.5902 40.528 49.2424 40.8475C49.8945 41.1669 50.6314 41.496 51.453 41.835C52.5746 42.3042 53.5821 42.8029 54.4755 43.3309C55.3689 43.8589 56.1351 44.4554 56.7741 45.1203C57.4132 45.7851 57.9022 46.5445 58.2414 47.3984C58.5805 48.2523 58.75 49.2463 58.75 50.3805C58.75 51.9449 58.4533 53.2583 57.8599 54.3208C57.2665 55.3833 56.4611 56.2438 55.4439 56.902C54.4266 57.5604 53.243 58.033 51.8931 58.3198C50.5432 58.6066 49.1185 58.75 47.6186 58.75C46.0796 58.75 44.6157 58.6196 43.2267 58.3589C41.8377 58.0981 40.6346 57.7071 39.6174 57.1856ZM37.125 35.5103H29.0975V58.375H22.7383V35.5103H14.75V30.375H37.125V35.5103Z" fill="white"/>
</svg>
