<svg width="103" height="102" viewBox="0 0 103 102" fill="none" xmlns="http://www.w3.org/2000/svg">
<path d="M32.8397 52.0581C32.7929 60.4944 38.9809 65.5221 48.8537 63.2356V40.8764C38.8577 37.8334 32.8822 43.9916 32.8397 52.0581ZM49.1554 8.54663H62.7512V72.9044C49.7207 75.0336 37.2342 76.3851 28.3092 71.3956C16.8129 64.9654 15.8864 44.5399 24.9857 35.4406C29.5969 30.8294 38.8874 27.5781 48.8537 29.6989V9.45613C48.8282 9.02688 48.8027 8.59763 49.1554 8.54663ZM84.8087 22.7501H71.2129V8.54663H84.8087V22.7501Z" fill="#41B883"/>
<path d="M84.8087 29.937C84.7959 39.95 84.7959 47.141 84.7959 59.3088C84.2179 71.264 84.3539 80.7798 79.9722 86.5003C79.1094 87.6308 77.2777 89.2713 75.7434 90.4273C74.4557 91.3963 71.9992 93.364 70.6094 93.449C69.2027 93.5383 65.5944 91.4983 63.9624 90.729C61.8162 89.7218 59.8357 88.3788 57.6172 87.7115C62.7937 84.507 67.6982 82.1015 69.7042 75.6245C71.4467 69.989 71.2129 61.8248 71.2129 53.8688C71.2129 46.0105 71.2512 36.8773 71.2512 29.9413L84.8087 29.937Z" fill="#41B883"/>
</svg>
