<svg width="101" height="100" viewBox="0 0 101 100" fill="none" xmlns="http://www.w3.org/2000/svg">
<path d="M90.511 46.2834L54.1318 9.91257C53.123 8.90829 51.7574 8.34448 50.3339 8.34448C48.9104 8.34448 47.5448 8.90829 46.536 9.91257L38.9985 17.4584L48.5777 27.0417C49.7078 26.6599 50.9225 26.6023 52.0837 26.8757C53.2449 27.149 54.3063 27.7423 55.1475 28.5883C55.9887 29.4342 56.5759 30.4989 56.8427 31.6617C57.1095 32.8245 57.0451 34.0387 56.6568 35.1667L65.8818 44.4042C67.2476 43.925 68.7358 43.9248 70.1017 44.4037C71.4677 44.8826 72.6299 45.812 73.3975 47.0392C74.165 48.2664 74.4921 49.7182 74.3249 51.1559C74.1577 52.5937 73.5063 53.9317 72.4776 54.9501C69.9818 57.4501 65.9527 57.4501 63.4527 54.9501C62.5646 54.0611 61.958 52.9304 61.7083 51.6989C61.4586 50.4675 61.5769 49.1897 62.0485 48.0251L53.4068 39.4292V62.0834C54.0152 62.3792 54.5985 62.7876 55.1026 63.2917C56.2939 64.4914 56.9625 66.1135 56.9625 67.8042C56.9625 69.4949 56.2939 71.117 55.1026 72.3167C54.5082 72.9121 53.8022 73.3845 53.0251 73.7068C52.2479 74.029 51.4148 74.1949 50.5735 74.1949C49.7321 74.1949 48.8991 74.029 48.1219 73.7068C47.3447 73.3845 46.6387 72.9121 46.0443 72.3167C45.4512 71.7253 44.9806 71.0226 44.6595 70.249C44.3384 69.4754 44.1731 68.646 44.1731 67.8084C44.1731 66.9708 44.3384 66.1414 44.6595 65.3678C44.9806 64.5942 45.4512 63.8915 46.0443 63.3001C46.6777 62.6751 47.386 62.2001 48.1443 61.8876V39.0126C47.3653 38.6936 46.6571 38.2234 46.0609 37.6292C45.4646 37.0349 44.9921 36.3284 44.6705 35.5504C44.3489 34.7724 44.1847 33.9384 44.1874 33.0966C44.19 32.2548 44.3595 31.4218 44.686 30.6459L35.2693 21.1834L10.3235 46.1084C8.24015 48.2084 8.24015 51.6084 10.3235 53.7084L46.7027 90.0792C47.2004 90.5782 47.7917 90.9742 48.4427 91.2443C49.0937 91.5144 49.7916 91.6535 50.4964 91.6535C51.2012 91.6535 51.8991 91.5144 52.5501 91.2443C53.2011 90.9742 53.7924 90.5782 54.2901 90.0792L90.4985 53.8751C90.9999 53.3786 91.3983 52.7879 91.6705 52.1369C91.9427 51.4859 92.0834 50.7875 92.0846 50.0818C92.0857 49.3762 91.9473 48.6773 91.6772 48.0254C91.4072 47.3735 91.0108 46.7815 90.511 46.2834Z" fill="#41B883"/>
</svg>
