<svg width="101" height="101" viewBox="0 0 101 101" fill="none" xmlns="http://www.w3.org/2000/svg">
<path d="M12.625 12.625H88.375V88.375H12.625V12.625ZM82.1677 70.3086C81.6164 66.8536 79.365 63.9498 72.6905 61.2397C70.3675 60.1497 67.7878 59.3964 67.0135 57.6457C66.7273 56.6021 66.6852 56.0382 66.8704 55.4195C67.346 53.3827 69.7615 52.7725 71.6553 53.3364C72.8883 53.7152 74.0246 54.662 74.7358 56.1812C77.9972 54.0476 77.9972 54.0476 80.274 52.6294C79.4197 51.308 78.9946 50.7315 78.4265 50.1633C76.436 47.9413 73.7847 46.8051 69.4796 46.9019L67.2576 47.1838C65.124 47.7057 63.0871 48.8461 61.8583 50.3569C58.2602 54.4306 59.2996 61.53 63.6552 64.4717C67.9604 67.691 74.2645 68.398 75.0682 71.428C75.8257 75.123 72.3244 76.3055 68.861 75.8805C66.3065 75.3081 64.8841 74.033 63.3228 71.6637L57.549 74.9799C58.2097 76.4907 58.9672 77.1556 60.1034 78.4812C65.5953 84.0194 79.3271 83.7374 81.7889 75.3081C81.8773 75.0262 82.5464 73.0861 82.0246 70.1024L82.1677 70.3086ZM53.8162 47.4405H46.7209C46.7209 53.5552 46.6915 59.6363 46.6915 65.7636C46.6915 69.6521 46.8892 73.2208 46.2538 74.3192C45.2143 76.4949 42.5252 76.2171 41.309 75.8299C40.0591 75.2155 39.4237 74.3612 38.6872 73.1324C38.4894 72.8042 38.3421 72.518 38.2874 72.518L32.5304 76.0698C33.4941 78.0604 34.8997 79.769 36.7135 80.8547C39.411 82.4665 43.0344 82.9883 46.8303 82.1382C49.3048 81.4228 51.4385 79.9541 52.5452 77.6816C54.1612 74.7484 53.8162 71.1461 53.8035 67.1229C53.8372 60.6379 53.8035 54.1486 53.8035 47.6173L53.8162 47.4405Z" fill="#41B883"/>
</svg>
