<svg width="102" height="102" viewBox="0 0 102 102" fill="none" xmlns="http://www.w3.org/2000/svg">
<path d="M51 93.4363C49.8313 93.4363 48.739 93.1218 47.719 92.5778L37.3533 86.4238C35.802 85.561 36.5798 85.2465 37.0473 85.0893C39.1553 84.388 39.5463 84.235 41.7265 82.994C41.9645 82.8368 42.2748 82.909 42.5128 83.0663L50.4603 87.8263C50.7748 87.9793 51.1658 87.9793 51.3995 87.8263L82.5053 69.819C82.8198 69.666 82.9728 69.3516 82.9728 68.9606V33.014C82.9728 32.6273 82.8198 32.3128 82.5053 32.1598L51.3995 14.2291C51.0893 14.0718 50.6983 14.0718 50.4603 14.2291L19.346 32.1556C19.0358 32.3086 18.8785 32.7038 18.8785 33.0098V68.9521C18.8785 69.2623 19.0358 69.6576 19.346 69.8106L27.846 74.7278C32.4445 77.0568 35.3345 74.3241 35.3345 71.604V36.1336C35.3345 35.6661 35.7213 35.1943 36.2695 35.1943H40.2475C40.7065 35.1943 41.1825 35.5853 41.1825 36.1336V71.6083C41.1825 77.7666 37.8335 81.3578 31.9855 81.3578C30.192 81.3578 28.7895 81.3578 24.8115 79.4028L16.6303 74.732C15.6335 74.1526 14.8062 73.3216 14.2312 72.3222C13.6562 71.3229 13.3535 70.1901 13.3535 69.037V33.0905C13.3535 30.753 14.5988 28.5686 16.6303 27.3998L47.7233 9.39255C48.7326 8.85274 49.8596 8.57031 51.0043 8.57031C52.1489 8.57031 53.2759 8.85274 54.2853 9.39255L85.3825 27.3998C87.4183 28.5643 88.6593 30.753 88.6593 33.0905V69.037C88.6593 71.3703 87.414 73.5548 85.3825 74.732L54.2853 92.735C53.261 93.2025 52.0923 93.4363 51 93.4363ZM60.588 68.7183C46.9455 68.7183 44.1405 62.4793 44.1405 57.1838C44.1405 56.7163 44.5315 56.2446 45.0755 56.2446H49.13C49.5975 56.2446 49.9843 56.5548 49.9843 57.0266C50.609 61.1533 52.3983 63.1848 60.6688 63.1848C67.2138 63.1848 70.0273 61.6973 70.0273 58.1911C70.0273 56.1638 69.241 54.6848 59.0325 53.6733C50.5368 52.8233 45.237 50.9406 45.237 44.1618C45.237 37.8506 50.5368 34.1063 59.4278 34.1063C69.4025 34.1063 74.3155 37.5446 74.936 45.0203C74.9286 45.2726 74.8457 45.5169 74.698 45.7216C74.5408 45.8746 74.3113 46.0318 74.0775 46.0318H70.0273C69.8271 46.0275 69.634 45.9567 69.4785 45.8305C69.3231 45.7043 69.2141 45.5299 69.1688 45.3348C68.2295 41.0338 65.8155 39.6398 59.4278 39.6398C52.2495 39.6398 51.391 42.1346 51.391 44.0046C51.391 46.2613 52.3983 46.9626 62.0755 48.2121C71.6635 49.4573 76.1855 51.2508 76.1855 57.9615C76.1005 64.8253 70.4948 68.7183 60.588 68.7183Z" fill="#41B883"/>
</svg>
