<svg width="101" height="100" viewBox="0 0 101 100" fill="none" xmlns="http://www.w3.org/2000/svg">
<path d="M40.3651 48.7167H58.3984C58.3984 48.7167 68.5318 48.8792 68.5318 38.925V22.4625C68.5318 22.4625 70.0693 12.5 50.1609 12.5C31.1026 12.5 32.2901 20.7625 32.2901 20.7625L32.3151 29.325H50.4943V31.8958H25.0943C25.0943 31.8958 12.8984 30.5125 12.8984 49.7375C12.8984 68.9625 23.5443 68.2792 23.5443 68.2792H29.8943V59.3583C29.8943 59.3583 29.5484 48.7167 40.3651 48.7167ZM40.1318 24.8C39.2643 24.8 38.4323 24.4554 37.8189 23.842C37.2055 23.2286 36.8609 22.3966 36.8609 21.5292C36.8609 20.6617 37.2055 19.8297 37.8189 19.2163C38.4323 18.6029 39.2643 18.2583 40.1318 18.2583C40.9993 18.2583 41.8312 18.6029 42.4446 19.2163C43.058 19.8297 43.4026 20.6617 43.4026 21.5292C43.4026 22.3966 43.058 23.2286 42.4446 23.842C41.8312 24.4554 40.9993 24.8 40.1318 24.8Z" fill="#41B883"/>
<path d="M77.3109 31.3833H70.9609V40.3042C70.9609 40.3042 71.3068 50.9458 60.4901 50.9458H42.4568C42.4568 50.9458 32.3234 50.7792 32.3234 60.7375V77.2C32.3234 77.2 30.7859 87.1625 50.6943 87.1625C69.7484 87.1625 68.5609 78.9 68.5609 78.9L68.5359 70.3417H50.3568V67.7708H75.7609C75.7609 67.7708 87.9568 69.1542 87.9568 49.9292C87.9568 30.7042 77.3109 31.3833 77.3109 31.3833ZM60.7234 74.8667C61.5909 74.8667 62.4229 75.2113 63.0363 75.8247C63.6497 76.4381 63.9943 77.27 63.9943 78.1375C63.9943 79.005 63.6497 79.8369 63.0363 80.4503C62.4229 81.0637 61.5909 81.4083 60.7234 81.4083C59.8559 81.4083 59.024 81.0637 58.4106 80.4503C57.7972 79.8369 57.4526 79.005 57.4526 78.1375C57.4526 77.27 57.7972 76.4381 58.4106 75.8247C59.024 75.2113 59.8559 74.8667 60.7234 74.8667Z" fill="#41B883"/>
</svg>
