<svg width="101" height="101" viewBox="0 0 101 101" fill="none" xmlns="http://www.w3.org/2000/svg">
<path d="M50.6257 54.507C54.7496 54.507 58.0927 51.1639 58.0927 47.04C58.0927 42.9161 54.7496 39.573 50.6257 39.573C46.5018 39.573 43.1587 42.9161 43.1587 47.04C43.1587 51.1639 46.5018 54.507 50.6257 54.507Z" fill="#41B883"/>
<path d="M29.7181 61.8862L28.0658 61.4637C15.7923 58.364 8.75195 53.0931 8.75195 47.0233C8.75195 40.9493 15.7965 35.6827 28.0658 32.5829L29.7181 32.1646L30.1825 33.8002C31.423 38.0825 33.0123 42.256 34.9346 46.2787L35.2902 47.0233L34.9346 47.7679C33.0103 51.7963 31.4165 55.9712 30.1825 60.2548L29.7181 61.8862ZM27.3044 36.3896C17.9801 39.0167 12.2533 43.0242 12.2533 47.0233C12.2533 51.0141 17.9759 55.0258 27.3044 57.6486C28.4465 54.0176 29.8269 50.4661 31.4249 47.0233C29.8153 43.5748 28.4388 40.0223 27.3044 36.3896ZM71.5292 61.8862L71.0691 60.2464C69.8253 55.9632 68.2346 51.7885 66.3128 47.7637L65.9572 47.0233L66.3128 46.2745C68.237 42.2545 69.8225 38.0754 71.0691 33.7918L71.5292 32.1604L73.1816 32.5787C85.4593 35.6785 92.4954 40.9451 92.4954 47.0233C92.4954 53.0973 85.4551 58.364 73.1816 61.4637L71.5292 61.8862ZM69.8141 47.0233C71.4874 50.646 72.8804 54.21 73.9429 57.6486C83.2714 55.0258 88.9983 51.0141 88.9983 47.0233C88.9983 43.0242 83.2756 39.0208 73.9429 36.3896C72.8021 40.0211 71.4228 43.5734 69.8141 47.0233Z" fill="#41B883"/>
<path d="M27.2793 36.3729L26.8191 34.7414C23.3638 22.5767 24.4096 13.8631 29.693 10.8261C34.8592 7.83512 43.1712 11.3699 51.8765 20.301L53.0645 21.5225L51.8765 22.7398C48.7846 25.9554 45.9586 29.4165 43.4264 33.0891L42.9537 33.7668L42.1338 33.8337C37.6811 34.1834 33.2644 34.8955 28.9274 35.9629L27.2793 36.3729ZM33.8971 13.244C32.9601 13.244 32.1318 13.449 31.4332 13.8506C27.9695 15.8459 27.3587 22.7942 29.7432 32.173C33.4704 31.3489 37.2311 30.759 41.0211 30.4286C43.2152 27.3165 45.6089 24.35 48.1869 21.5476C42.7362 16.2475 37.5909 13.244 33.8971 13.244ZM67.3501 84.2914C62.3805 84.2914 55.9969 80.5433 49.3707 73.7414L48.1869 72.5241L49.3707 71.311C52.4631 68.0902 55.2904 64.625 57.825 60.9492L58.2935 60.2799L59.105 60.2004C63.5593 59.8569 67.9777 59.1475 72.3156 58.0795L73.9679 57.6612L74.4323 59.2968C77.8709 71.4532 76.8293 80.1793 71.5542 83.2163C70.2735 83.9423 68.8222 84.3135 67.3501 84.2914ZM53.0645 72.4948C58.511 77.7949 63.6605 80.8026 67.3501 80.8026C68.2913 80.8026 69.1196 80.5935 69.814 80.1961C73.2819 78.1965 73.8968 71.2357 71.504 61.8569C67.781 62.6852 64.0161 63.2792 60.2178 63.6097C58.0329 66.7267 55.6432 69.6949 53.0645 72.4948Z" fill="#41B883"/>
<path d="M73.968 36.3728L72.3157 35.9587C67.978 34.8879 63.5596 34.1758 59.1051 33.8295L58.2936 33.7583L57.8251 33.0807C55.294 29.4061 52.4665 25.9448 49.3708 22.7314L48.187 21.5141L49.3708 20.301C58.0719 11.3741 66.3797 7.83925 71.5543 10.8261C76.8335 13.8672 77.8835 22.5808 74.4324 34.7414L73.968 36.3728ZM60.2179 30.4285C64.2086 30.7841 67.9903 31.3823 71.5041 32.1729C73.8927 22.7942 73.282 15.8459 69.8141 13.8463C66.3672 11.8509 59.879 14.9047 53.0646 21.5476C55.6415 24.3503 58.0342 27.312 60.2179 30.4285ZM33.8972 84.2914C32.4253 84.3124 30.9742 83.9413 29.6931 83.2163C24.4097 80.1793 23.3639 71.4573 26.815 59.2968L27.2668 57.6611L28.9192 58.0795C32.9518 59.096 37.3943 59.8113 42.1297 60.2003L42.9413 60.2798L43.414 60.9491C45.9406 64.622 48.7685 68.0899 51.864 71.3109L53.0521 72.524L51.864 73.7413C45.242 80.5474 38.8585 84.2914 33.8972 84.2914ZM29.7433 61.8611C27.3588 71.2398 27.9696 78.2006 31.4333 80.2002C34.8844 82.1663 41.3517 79.1335 48.187 72.4948C45.6099 69.6916 43.2164 66.7251 41.0212 63.6138C37.2274 63.2783 33.4599 62.6928 29.7433 61.8611Z" fill="#41B883"/>
<path d="M50.6257 64.0574C47.7518 64.0574 44.8027 63.9361 41.841 63.6893L41.0211 63.6182L40.5484 62.9405C38.8782 60.5389 37.3068 58.0702 35.8381 55.5404C34.3802 53.0039 33.0251 50.4096 31.7762 47.7639L31.4248 47.0235L31.7762 46.2747C33.027 43.6309 34.3781 41.0373 35.8381 38.5023C37.2896 36.0091 38.8751 33.5159 40.5484 31.098L41.0211 30.4287L41.841 30.3534C47.6844 29.864 53.5586 29.864 59.402 30.3534L60.2136 30.4329L60.6863 31.1022C64.032 35.9077 66.9704 40.9842 69.471 46.2788L69.8182 47.0276L69.471 47.7681C66.9773 53.0663 64.0386 58.1434 60.6863 62.9447L60.2136 63.6224L59.402 63.6935C56.4487 63.9319 53.4954 64.0574 50.6257 64.0574ZM42.9537 60.2758C48.1199 60.6649 53.1314 60.6649 58.2935 60.2758C61.1752 56.0559 63.7369 51.626 65.9571 47.0235C63.7448 42.4167 61.1827 37.9863 58.2935 33.7711C53.1878 33.3779 48.0594 33.3779 42.9537 33.7711C40.062 37.9848 37.4999 42.4154 35.2901 47.0235C37.515 51.6235 40.0765 56.053 42.9537 60.2758Z" fill="#41B883"/>
</svg>
