<svg width="102" height="101" viewBox="0 0 102 101" fill="none" xmlns="http://www.w3.org/2000/svg">
<path d="M51.3244 8.41675C74.5628 8.41675 93.4077 27.2617 93.4077 50.5001C93.4077 73.7385 74.5628 92.5834 51.3244 92.5834C28.086 92.5834 9.24109 73.7385 9.24109 50.5001C9.24109 27.2617 28.086 8.41675 51.3244 8.41675ZM42.9625 64.5222C43.5769 66.7821 43.5095 68.8947 42.8741 70.8053L42.6468 71.4365C42.1152 72.709 41.3646 73.8784 40.429 74.8916C37.9798 77.5555 34.5626 78.5612 33.0981 77.7154C31.52 76.7937 32.307 73.0357 35.1476 70.0352C38.2028 66.8158 42.5795 64.7411 42.5795 64.7411V64.7327L42.9625 64.5222ZM77.7149 26.4326C75.8127 18.9544 63.4192 16.4925 51.6863 20.663C44.7173 23.1417 37.155 27.0386 31.7262 32.1223C25.2622 38.157 24.2354 43.4175 24.6562 45.6142C26.1502 53.3702 36.7804 58.4412 41.1529 62.2035V62.2245C39.8609 62.8515 30.43 67.5859 28.2249 72.4844C25.8556 77.6396 28.5952 81.3261 30.3838 81.7932C35.9093 83.3209 41.5863 80.5307 44.6416 76.011C47.5832 71.588 47.3265 65.911 46.0598 63.1209C47.7978 62.6495 49.8431 62.4391 52.4733 62.759C59.8421 63.5964 61.315 68.2298 60.991 70.1235C60.6795 72.0131 59.1561 73.1157 58.6301 73.4313C58.0998 73.7511 57.9441 73.8563 57.9946 74.0667C58.0493 74.3782 58.3145 74.3782 58.7311 74.3319C59.3118 74.2267 62.5775 72.7537 62.7332 69.1682C62.8889 64.6485 58.5754 59.6027 50.8952 59.6995C47.7389 59.7584 45.7358 60.0193 44.3175 60.6001C44.2218 60.4517 44.0956 60.3255 43.9472 60.2297C39.2128 55.125 30.4258 51.548 30.7962 44.7641C30.9014 42.2896 31.7935 35.7709 47.6295 27.8803C60.6248 21.4079 70.99 23.2006 72.7827 27.1438C75.3498 32.7662 67.253 43.2407 53.7358 44.7641C48.5806 45.3449 45.8999 43.3459 45.2097 42.6052C44.4775 41.8141 44.3765 41.7636 44.1113 41.9277C43.6863 42.1381 43.9514 42.8199 44.1113 43.2449C44.5322 44.2928 46.1608 46.1402 49.0056 47.0829C51.4759 47.8741 57.5233 48.3412 64.7869 45.5048C72.9384 42.3527 79.3014 33.5615 77.4624 26.197L77.7149 26.4326Z" fill="#41B883"/>
</svg>
