<svg width="101" height="101" viewBox="0 0 101 101" fill="none" xmlns="http://www.w3.org/2000/svg">
<g clip-path="url(#clip0_130_18)">
<path fill-rule="evenodd" clip-rule="evenodd" d="M20.3243 13H80.6758C84.7209 13 88.0001 16.2792 88.0001 20.3242V80.6758C88.0001 84.7208 84.7209 88 80.6758 88H20.3243C16.2792 88 13.0001 84.7208 13.0001 80.6758V20.3242C13.0001 16.2792 16.2792 13 20.3243 13ZM59.4266 80.0144V72.6812C60.7562 73.7966 62.2006 74.633 63.7595 75.1905C65.3185 75.7482 66.8926 76.0269 68.4821 76.0269C69.4145 76.0269 70.2282 75.943 70.9237 75.7748C71.6191 75.6068 72.1999 75.3739 72.666 75.076C73.1321 74.778 73.4799 74.4267 73.7091 74.0218C73.9384 73.617 74.0531 73.1778 74.0531 72.7042C74.0531 72.0625 73.8697 71.4896 73.5029 70.9855C73.1359 70.4813 72.6354 70.0154 72.0011 69.5876C71.367 69.1599 70.6142 68.7474 69.7431 68.3501C68.8719 67.9529 67.9319 67.5481 66.9232 67.1356C64.3555 66.0661 62.4412 64.7599 61.1805 63.217C59.9195 61.674 59.2891 59.8101 59.2891 57.6254C59.2891 55.9143 59.633 54.4439 60.3207 53.2142C61.0085 51.9843 61.9445 50.9722 63.129 50.1777C64.3136 49.3833 65.6853 48.799 67.2442 48.4247C68.8031 48.0505 70.4537 47.8633 72.1961 47.8633C73.9078 47.8633 75.4247 47.9664 76.7468 48.1726C78.0688 48.3789 79.2877 48.6959 80.4033 49.1236V55.9756C79.8531 55.5935 79.2533 55.2575 78.6038 54.9672C77.9541 54.677 77.2855 54.4363 76.5978 54.2453C75.9099 54.0544 75.226 53.9131 74.5458 53.8214C73.8657 53.7298 73.22 53.684 72.6087 53.684C71.7681 53.684 71.004 53.7641 70.3161 53.9245C69.6284 54.0849 69.0477 54.3103 68.5738 54.6005C68.1001 54.8908 67.7333 55.2383 67.4734 55.6432C67.2136 56.0481 67.0836 56.5026 67.0836 57.0067C67.0836 57.5567 67.2289 58.0493 67.5193 58.4848C67.8096 58.9202 68.2223 59.3327 68.7572 59.7223C69.2922 60.1118 69.9417 60.4937 70.7059 60.8681C71.4701 61.2424 72.3336 61.6281 73.2965 62.0254C74.6109 62.5753 75.7915 63.1596 76.8385 63.7783C77.8854 64.3971 78.7833 65.0961 79.5322 65.8753C80.2811 66.6544 80.8542 67.5443 81.2516 68.5449C81.649 69.5456 81.8476 70.7104 81.8476 72.0396C81.8476 73.8729 81.4999 75.412 80.8045 76.6571C80.1092 77.9022 79.1654 78.9106 77.9733 79.682C76.7812 80.4535 75.3941 81.0074 73.8122 81.3434C72.2304 81.6796 70.5607 81.8476 68.8031 81.8476C66.9995 81.8476 65.2841 81.6948 63.6563 81.3893C62.0286 81.0837 60.6187 80.6255 59.4266 80.0144ZM56.5058 54.6136H47.0986V81.4082H39.6464V54.6136H30.2851V48.5957H56.5058V54.6136Z" fill="#41B883"/>
</g>
<defs>
<clipPath id="clip0_130_18">
<rect width="75" height="75" fill="white" transform="translate(13 13)"/>
</clipPath>
</defs>
</svg>
