<svg width="101" height="101" viewBox="0 0 101 101" fill="none" xmlns="http://www.w3.org/2000/svg">
<path d="M89.5954 17.2541L72.2571 8.83742C71.6148 8.57592 70.9303 8.43333 70.2371 8.41658H69.9004C68.8067 8.4104 67.7416 8.76544 66.8704 9.42658L66.2812 9.93158L33.1196 40.1895L18.685 29.4583C18.0347 28.9608 17.2304 28.7076 16.4125 28.7428C15.6112 28.7337 14.8286 28.9847 14.1821 29.4583L9.5529 33.6666C9.18995 33.9875 8.90054 34.383 8.70444 34.826C8.50834 35.2691 8.41018 35.7492 8.41665 36.2337C8.41491 36.7236 8.51502 37.2085 8.71062 37.6576C8.90622 38.1068 9.19305 38.5104 9.5529 38.8428L22.1779 50.2474L9.5529 61.6941C9.19731 62.0249 8.91371 62.4255 8.71978 62.8708C8.52586 63.316 8.42577 63.7965 8.42577 64.2822C8.42577 64.7679 8.52586 65.2484 8.71978 65.6937C8.91371 66.139 9.19731 66.5395 9.5529 66.8703L14.1821 71.0787C14.8801 71.6892 15.7798 72.0191 16.7071 72.0045C17.4193 71.951 18.1033 71.7036 18.685 71.2891L33.1196 60.3053L66.2812 90.5633C67.1297 91.4375 68.2656 91.9756 69.4796 92.0782H70.195C70.9142 92.0889 71.6242 91.9151 72.2571 91.5733L89.5954 83.1566C90.4727 82.7366 91.2164 82.0817 91.7439 81.2645C92.2714 80.4473 92.5619 79.4998 92.5833 78.5274V22.0095C92.5805 21.0166 92.2989 20.0445 91.7706 19.2037C91.2424 18.363 90.4887 17.6875 89.5954 17.2541ZM71.5417 69.3112L46.2917 50.2474L71.5417 31.1837V69.3112Z" fill="#41B883"/>
</svg>
