<svg width="36" height="36" viewBox="0 0 36 36" fill="none" xmlns="http://www.w3.org/2000/svg">
<path d="M8.89427 12.1333H1.03174C0.682789 12.1333 0.40004 12.3836 0.40004 12.6922V35.041C0.40004 35.3498 0.682789 35.6 1.03174 35.6H8.89427C9.24322 35.6 9.52597 35.3498 9.52597 35.041V12.6922C9.52597 12.3836 9.24322 12.1333 8.89427 12.1333Z" fill="white"/>
<path d="M4.96481 0.399902C2.44775 0.399902 0.400009 2.44642 0.400009 4.96192C0.400009 7.47853 2.44775 9.52583 4.96481 9.52583C7.47986 9.52583 9.52594 7.47842 9.52594 4.96192C9.52605 2.44642 7.47986 0.399902 4.96481 0.399902Z" fill="white"/>
<path d="M26.4418 10.8296C23.5641 10.8296 21.4368 12.0681 20.1465 13.4754V11.9787C20.1465 11.6604 19.8889 11.4023 19.5709 11.4023H12.7091C12.3911 11.4023 12.1335 11.6604 12.1335 11.9787V35.0235C12.1335 35.3419 12.3911 35.5998 12.7091 35.5998H19.8585C20.1765 35.5998 20.4341 35.3419 20.4341 35.0235V23.6217C20.4341 19.7795 21.4765 18.2827 24.1517 18.2827C27.0653 18.2827 27.2968 20.6823 27.2968 23.8193V35.0236C27.2968 35.342 27.5545 35.6 27.8725 35.6H35.0245C35.3425 35.6 35.6001 35.342 35.6001 35.0236V22.3831C35.6001 16.67 34.512 10.8296 26.4418 10.8296Z" fill="white"/>
</svg>
