<svg width="30" height="21" viewBox="0 0 30 21" fill="none" xmlns="http://www.w3.org/2000/svg">
<g clip-path="url(#clip0_101_93)">
<path d="M-6.10352e-05 0H29.9999V21H-6.10352e-05V0Z" fill="#009B3A"/>
<path d="M2.54999 10.5L15 18.45L27.45 10.5L15 2.55005L2.54999 10.5Z" fill="#FEDF00"/>
<path d="M15 15.75C17.8995 15.75 20.25 13.3995 20.25 10.5C20.25 7.60051 17.8995 5.25 15 5.25C12.1005 5.25 9.75 7.60051 9.75 10.5C9.75 13.3995 12.1005 15.75 15 15.75Z" fill="#002776"/>
<mask id="mask0_101_93" style="mask-type:luminance" maskUnits="userSpaceOnUse" x="9" y="5" width="12" height="11">
<path d="M15 15.75C17.8995 15.75 20.25 13.3995 20.25 10.5C20.25 7.60051 17.8995 5.25 15 5.25C12.1005 5.25 9.75 7.60051 9.75 10.5C9.75 13.3995 12.1005 15.75 15 15.75Z" fill="white"/>
</mask>
<g mask="url(#mask0_101_93)">
<path d="M-0.75 21C-0.75 17.6185 0.5933 14.3755 2.98439 11.9844C5.37548 9.5933 8.61849 8.25 12 8.25C15.3815 8.25 18.6245 9.5933 21.0156 11.9844C23.4067 14.3755 24.75 17.6185 24.75 21H24C24 17.8174 22.7357 14.7652 20.4853 12.5147C18.2348 10.2643 15.1826 9 12 9C8.8174 9 5.76516 10.2643 3.51472 12.5147C1.26428 14.7652 5.30854e-08 17.8174 5.30854e-08 21H-0.75Z" fill="white"/>
</g>
<path fill-rule="evenodd" clip-rule="evenodd" d="M10.5224 8.96543C10.5816 8.95816 10.6352 8.92504 10.6713 8.87337C10.7075 8.82169 10.7233 8.75569 10.7152 8.68988C10.7071 8.62407 10.6759 8.56384 10.6283 8.52245C10.5807 8.48106 10.5206 8.46189 10.4614 8.46916C10.4022 8.47643 10.3486 8.50955 10.3124 8.56123C10.2763 8.61291 10.2605 8.67891 10.2686 8.74472C10.2766 8.81053 10.3079 8.87075 10.3555 8.91215C10.4031 8.95354 10.4631 8.97271 10.5224 8.96543M10.511 8.87327C10.5458 8.869 10.5772 8.84847 10.5982 8.8162C10.6192 8.78393 10.6281 8.74256 10.623 8.70119C10.618 8.65983 10.5993 8.62185 10.5711 8.59562C10.5429 8.56939 10.5075 8.55706 10.4727 8.56133C10.438 8.5656 10.4066 8.58613 10.3856 8.6184C10.3646 8.65067 10.3557 8.69204 10.3607 8.7334C10.3658 8.77477 10.3845 8.81274 10.4127 8.83897C10.4409 8.8652 10.4763 8.87754 10.511 8.87327" fill="#009B3A"/>
<path fill-rule="evenodd" clip-rule="evenodd" d="M10.9298 8.92029L11.0224 8.91381L11.0095 8.72855L11.209 8.7146C11.2505 8.71169 11.2893 8.69239 11.3166 8.66094C11.3439 8.62948 11.3577 8.58845 11.3548 8.54688C11.3519 8.5053 11.3326 8.46659 11.3011 8.43924C11.2696 8.4119 11.2286 8.39817 11.187 8.40108L10.902 8.42101L10.9298 8.92029ZM11.003 8.63592L11.1954 8.62247C11.2124 8.62128 11.2282 8.61338 11.2394 8.60051C11.2506 8.58765 11.2562 8.57086 11.255 8.55385C11.2538 8.53685 11.2459 8.52101 11.2331 8.50982C11.2202 8.49864 11.2034 8.49302 11.1864 8.49421L10.994 8.50766L11.003 8.63592Z" fill="#009B3A"/>
<path d="M11.3537 8.89064C11.3487 8.81938 11.3378 8.66262 11.2309 8.6701L11.0955 8.67957C11.2523 8.6686 11.2632 8.82536 11.2682 8.89662" fill="#009B3A"/>
<path fill-rule="evenodd" clip-rule="evenodd" d="M11.5635 8.88078L11.7992 8.87667C11.8273 8.87618 11.8551 8.87015 11.8809 8.85893C11.9067 8.84771 11.93 8.83151 11.9496 8.81127C11.9691 8.79103 11.9845 8.76713 11.9948 8.74095C12.0051 8.71477 12.0102 8.68681 12.0097 8.65868L12.0084 8.58726C12.0079 8.55912 12.0019 8.53136 11.9907 8.50555C11.9795 8.47975 11.9633 8.4564 11.943 8.43685C11.9228 8.41731 11.8989 8.40194 11.8727 8.39162C11.8465 8.38131 11.8186 8.37625 11.7904 8.37675L11.5547 8.38086L11.5635 8.88078ZM11.6547 8.78632L11.7904 8.78395C11.8264 8.78332 11.8606 8.76842 11.8856 8.74253C11.9107 8.71664 11.9243 8.68188 11.9237 8.64589L11.923 8.60304C11.9223 8.56705 11.9074 8.53279 11.8815 8.50778C11.8557 8.48278 11.8209 8.46909 11.7849 8.46971L11.6492 8.47208L11.6547 8.78632Z" fill="#009B3A"/>
<path d="M12.1983 8.87457L12.648 8.89028L12.6513 8.79748L12.2872 8.78476L12.2917 8.65627L12.5772 8.66624L12.5802 8.58058L12.2947 8.57061L12.2982 8.47067L12.6408 8.48264L12.6441 8.38983L12.2158 8.37488L12.1983 8.87457Z" fill="#009B3A"/>
<path d="M12.8326 8.90154L12.918 8.90901L12.9479 8.56746L13.0177 8.91773L13.0959 8.92457L13.2254 8.59174L13.1955 8.93329L13.2809 8.94076L13.3245 8.44266L13.2 8.43177L13.0705 8.7646L13.0007 8.41434L12.8762 8.40344L12.8326 8.90154Z" fill="#009B3A"/>
<path d="M13.8686 9.01845L14.2382 9.08196L14.2527 8.99748L13.9676 8.94849L13.987 8.83586L14.2193 8.87577L14.2338 8.7913L14.0015 8.75138L14.0148 8.67394L14.2911 8.72142L14.3056 8.63695L13.9448 8.57495L13.8686 9.01845Z" fill="#009B3A"/>
<path fill-rule="evenodd" clip-rule="evenodd" d="M14.818 9.2049L14.9079 9.22815L14.9544 9.04835L15.1481 9.09843C15.1884 9.10886 15.2313 9.10284 15.2672 9.08169C15.3031 9.06053 15.3291 9.02598 15.3396 8.98563C15.35 8.94528 15.344 8.90244 15.3228 8.86653C15.3017 8.83062 15.2671 8.80459 15.2268 8.79415L14.9502 8.72261L14.818 9.2049ZM14.9777 8.95845L15.1644 9.00674C15.1809 9.01101 15.1984 9.00854 15.2131 8.99989C15.2278 8.99124 15.2385 8.9771 15.2427 8.9606C15.247 8.94409 15.2445 8.92656 15.2359 8.91187C15.2272 8.89718 15.2131 8.88653 15.1966 8.88226L15.0099 8.83397L14.9777 8.95845Z" fill="#009B3A"/>
<path fill-rule="evenodd" clip-rule="evenodd" d="M15.4315 9.36858L15.5201 9.3965L15.5759 9.21939L15.7666 9.27953C15.8064 9.29206 15.8495 9.28829 15.8865 9.26904C15.9234 9.2498 15.9512 9.21666 15.9638 9.17691C15.9763 9.13716 15.9725 9.09406 15.9533 9.0571C15.934 9.02013 15.9009 8.99232 15.8612 8.97979L15.5887 8.89387L15.4315 9.36858ZM15.6038 9.13083L15.7878 9.18882C15.804 9.19395 15.8216 9.1924 15.8368 9.18453C15.8519 9.17666 15.8633 9.1631 15.8684 9.14684C15.8735 9.13058 15.872 9.11295 15.8641 9.09783C15.8562 9.0827 15.8427 9.07133 15.8264 9.0662L15.6425 9.00821L15.6038 9.13083Z" fill="#009B3A"/>
<path d="M15.8368 9.49634C15.8583 9.42822 15.9056 9.27835 15.8034 9.24613L15.674 9.20532C15.8238 9.25258 15.7766 9.40245 15.7551 9.47057" fill="#009B3A"/>
<path fill-rule="evenodd" clip-rule="evenodd" d="M16.2463 9.64296C16.3022 9.66386 16.365 9.65923 16.4209 9.63009C16.4769 9.60095 16.5214 9.54969 16.5446 9.48759C16.5678 9.42548 16.5679 9.35762 16.5448 9.29893C16.5217 9.24023 16.4773 9.19552 16.4214 9.17462C16.3655 9.15372 16.3027 9.15835 16.2467 9.18749C16.1908 9.21663 16.1463 9.26789 16.1231 9.32999C16.0999 9.3921 16.0998 9.45996 16.1229 9.51865C16.146 9.57735 16.1904 9.62206 16.2463 9.64296M16.2788 9.55598C16.3116 9.56825 16.3489 9.56452 16.3824 9.54559C16.416 9.52667 16.443 9.4941 16.4576 9.45507C16.4722 9.41603 16.4732 9.37372 16.4603 9.33743C16.4474 9.30115 16.4217 9.27387 16.3889 9.2616C16.356 9.24933 16.3188 9.25306 16.2852 9.27199C16.2517 9.29091 16.2247 9.32347 16.2101 9.36251C16.1955 9.40155 16.1945 9.44386 16.2074 9.48015C16.2203 9.51643 16.246 9.54371 16.2788 9.55598" fill="#009B3A"/>
<mask id="mask1_101_93" style="mask-type:luminance" maskUnits="userSpaceOnUse" x="16" y="9" width="2" height="1">
<path d="M16.6285 9.79093L16.8279 9.3324L17.2406 9.51183L17.0412 9.97036L16.6285 9.79093ZM16.9687 9.57278L16.9345 9.65138L17.1409 9.7411L17.175 9.66249L16.9687 9.57278Z" fill="white"/>
</mask>
<g mask="url(#mask1_101_93)">
<path fill-rule="evenodd" clip-rule="evenodd" d="M16.8348 9.88065C16.8896 9.90444 16.9526 9.90311 17.0099 9.87694C17.0673 9.85077 17.1144 9.8019 17.1409 9.7411C17.1673 9.68029 17.1709 9.61253 17.1509 9.55271C17.1309 9.49289 17.0889 9.44591 17.0342 9.42212C16.9795 9.39832 16.9165 9.39966 16.8591 9.42583C16.8017 9.452 16.7546 9.50086 16.7282 9.56166C16.7018 9.62247 16.6981 9.69023 16.7181 9.75006C16.7381 9.80988 16.7801 9.85685 16.8348 9.88065M16.8719 9.79549C16.904 9.80947 16.9414 9.80768 16.9759 9.79054C17.0104 9.7734 17.0391 9.74229 17.0557 9.70407C17.0723 9.66585 17.0755 9.62365 17.0645 9.58674C17.0536 9.54983 17.0293 9.52125 16.9972 9.50727C16.9651 9.4933 16.9276 9.49508 16.8932 9.51222C16.8587 9.52937 16.83 9.56047 16.8133 9.59869C16.7967 9.63691 16.7936 9.67912 16.8045 9.71602C16.8155 9.75293 16.8397 9.78152 16.8719 9.79549" fill="#009B3A"/>
</g>
<path d="M16.9673 9.66565L17.1409 9.74113L17.1124 9.80663L16.9388 9.73115L16.9673 9.66565Z" fill="#009B3A"/>
<path d="M17.0754 9.71265L17.1409 9.74113L17.0412 9.97039L16.9757 9.94191L17.0754 9.71265Z" fill="#009B3A"/>
<path fill-rule="evenodd" clip-rule="evenodd" d="M17.2088 10.0485L17.2919 10.09L17.3748 9.92377L17.5537 10.013C17.591 10.0316 17.6342 10.0346 17.6737 10.0214C17.7132 10.0082 17.7459 9.97979 17.7645 9.9425C17.7831 9.9052 17.7861 9.86204 17.7729 9.82252C17.7597 9.78299 17.7313 9.75034 17.694 9.73175L17.4383 9.60426L17.2088 10.0485ZM17.4162 9.84067L17.5888 9.92672C17.604 9.93433 17.6217 9.93557 17.6379 9.93016C17.654 9.92475 17.6674 9.91313 17.675 9.89788C17.6826 9.88262 17.6838 9.86496 17.6784 9.84879C17.673 9.83263 17.6614 9.81927 17.6461 9.81166L17.4736 9.72561L17.4162 9.84067Z" fill="#009B3A"/>
<path d="M17.5891 10.2382C17.621 10.1743 17.6911 10.0337 17.5952 9.98585L17.4738 9.92529C17.6144 9.99541 17.5443 10.136 17.5124 10.2" fill="#009B3A"/>
<path d="M17.7748 10.3362L18.1665 10.5578L18.2122 10.477L17.8952 10.2976L17.9585 10.1857L18.2072 10.3264L18.2494 10.2518L18.0007 10.1111L18.0499 10.024L18.3483 10.1929L18.3941 10.112L18.0211 9.901L17.7748 10.3362Z" fill="#009B3A"/>
<path d="M18.5043 10.581C18.4775 10.6231 18.5047 10.6701 18.5649 10.7085C18.6252 10.7469 18.6662 10.7455 18.6835 10.7184C18.7382 10.6326 18.4221 10.5074 18.5195 10.3577C18.6035 10.2292 18.7473 10.3292 18.8015 10.3638C18.8557 10.3983 18.9428 10.4877 18.8751 10.5906L18.7832 10.5321C18.812 10.4869 18.7804 10.4435 18.7322 10.4128C18.6855 10.383 18.6476 10.3694 18.6197 10.4131C18.5731 10.4829 18.883 10.6147 18.788 10.7638C18.718 10.8738 18.5961 10.8258 18.5148 10.774C18.4455 10.7298 18.342 10.6258 18.4094 10.5205L18.5043 10.581Z" fill="#009B3A"/>
<path d="M19.0407 10.9357C19.0117 10.9764 19.0364 11.0247 19.0946 11.0662C19.1527 11.1077 19.1938 11.1085 19.2125 11.0823C19.2716 10.9995 18.9624 10.8579 19.0676 10.7135C19.1582 10.5896 19.2965 10.697 19.3488 10.7343C19.4012 10.7717 19.4834 10.8654 19.4104 10.9647L19.3218 10.9015C19.3529 10.8578 19.3236 10.8128 19.2771 10.7796C19.232 10.7475 19.1948 10.7319 19.1647 10.7741C19.1146 10.8414 19.4171 10.9892 19.3144 11.1331C19.2387 11.2393 19.1196 11.1849 19.041 11.1289C18.9742 11.0812 18.8762 10.9719 18.9491 10.8704L19.0407 10.9357Z" fill="#009B3A"/>
<path fill-rule="evenodd" clip-rule="evenodd" d="M19.548 11.511C19.5947 11.5481 19.6559 11.5631 19.7181 11.5527C19.7803 11.5423 19.8384 11.5073 19.8797 11.4554C19.921 11.4035 19.942 11.339 19.9382 11.276C19.9343 11.2131 19.906 11.1568 19.8593 11.1197C19.8126 11.0825 19.7514 11.0675 19.6892 11.0779C19.6269 11.0884 19.5688 11.1234 19.5275 11.1753C19.4863 11.2272 19.4652 11.2917 19.4691 11.3546C19.4729 11.4176 19.5013 11.4738 19.548 11.511M19.6058 11.4383C19.6332 11.4601 19.6698 11.4681 19.7076 11.4605C19.7453 11.4528 19.7811 11.4302 19.807 11.3976C19.833 11.365 19.847 11.325 19.8459 11.2865C19.8449 11.248 19.8289 11.2142 19.8014 11.1924C19.774 11.1705 19.7374 11.1626 19.6997 11.1702C19.6619 11.1778 19.6262 11.2005 19.6002 11.2331C19.5743 11.2657 19.5603 11.3056 19.5613 11.3441C19.5624 11.3826 19.5784 11.4165 19.6058 11.4383" fill="#009B3A"/>
</g>
<defs>
<clipPath id="clip0_101_93">
<rect width="30" height="21" fill="white"/>
</clipPath>
</defs>
</svg>
