<svg width="657" height="329" viewBox="0 0 657 329" fill="none" xmlns="http://www.w3.org/2000/svg">
<g clip-path="url(#clip0_80_268)">
<path d="M216.363 329C196.539 329 176.744 328.646 156.979 327.937C128.737 326.923 99.533 325.876 72.3892 310.837C53.401 300.318 36.584 283.441 23.7567 262.029C15.1831 247.517 8.89666 231.772 5.11803 215.349C-1.93058 185.448 -1.6905 154.294 5.81809 124.506C8.44939 114.293 12.0768 104.362 16.6483 94.8555C36.4431 53.9079 72.5475 26.421 115.704 19.4431C116.061 19.3969 116.421 19.3892 116.779 19.4201C116.973 19.4305 117.167 19.4416 117.364 19.4334L117.618 19.3528C118.269 19.1268 118.937 18.9554 119.617 18.8403C186.176 8.94217 256.538 28.9696 323.092 76.756C374.552 113.709 442.75 133.608 531.585 137.589L532.846 137.655C557.575 139.074 581.496 149.259 602.025 167.109C622.287 184.728 637.501 208.234 646.021 235.087C647.069 238.361 648.029 241.769 648.875 245.216C649.663 248.419 649.607 251.771 648.713 254.947C647.82 258.122 646.119 261.012 643.775 263.336V263.343L643.554 263.57C643.022 264.099 642.461 264.606 641.888 265.079L641.215 265.633C635.538 270.305 631.054 273.995 625.687 276.861C622.108 278.76 618.302 280.196 614.359 281.134C592.711 286.406 570.727 291.294 549.018 295.663C506.858 304.155 463.587 311.16 420.407 316.483C352.713 324.821 284.57 329.001 216.363 329ZM116.274 20.8704C116.142 20.8692 116.009 20.8781 115.878 20.8973C73.1248 27.81 37.3622 55.0271 17.7637 95.5693C13.2373 104.981 9.64578 114.814 7.04065 124.926C-0.399522 154.45 -0.63662 185.328 6.34929 214.963C10.0909 231.229 16.3165 246.822 24.8073 261.196C37.509 282.398 54.154 299.106 72.9432 309.514C99.8433 324.418 128.909 325.461 157.019 326.469C244.934 329.607 332.961 325.78 420.271 315.024C463.423 309.703 506.666 302.703 548.798 294.217C570.493 289.851 592.461 284.967 614.095 279.698C617.942 278.783 621.657 277.383 625.15 275.53C630.408 272.722 634.849 269.067 640.472 264.439L641.146 263.885C641.638 263.479 642.122 263.045 642.584 262.593L642.717 262.454C647.338 257.802 649.135 251.664 647.647 245.615V245.614C646.81 242.204 645.86 238.833 644.823 235.593C627.418 180.735 582.393 141.968 532.785 139.122L531.53 139.056C490.952 137.237 455.443 132.198 422.978 123.651C384.223 113.448 350.389 98.0885 322.416 78.0009C256.116 30.3976 186.048 10.4447 119.779 20.2959C119.16 20.4026 118.551 20.5604 117.958 20.7675L117.501 20.8955C117.241 20.9071 116.98 20.904 116.72 20.8862C116.567 20.8783 116.419 20.8704 116.274 20.8704Z" fill="#F0F0F0"/>
<path d="M205.22 107.192C203.385 105.433 201.507 95.6244 199.164 94.6287C200.916 98.4954 199.644 99.5191 199.635 103.763C199.657 106.172 199.375 108.575 198.796 110.915H159.105V79.9714C159.105 77.1911 159.653 74.438 160.718 71.8693C161.783 69.3006 163.344 66.9666 165.313 65.0006C167.281 63.0347 169.617 61.4752 172.189 60.4112C174.76 59.3473 177.516 58.7997 180.299 58.7998C181.362 58.8205 182.417 58.9749 183.441 59.2592C186.852 60.1793 189.962 61.9794 192.457 64.4789C194.952 66.9784 196.746 70.0895 197.657 73.4999C200.683 84.548 205.496 102.938 205.22 107.192Z" fill="#2F2E41"/>
<path d="M161.434 145.258L161.454 121.14L147.261 122.407L152.27 137.618L149.926 175.852C148.789 176.107 147.751 176.687 146.938 177.521C146.125 178.355 145.573 179.407 145.348 180.549C145.124 181.692 145.237 182.874 145.674 183.953C146.111 185.033 146.852 185.961 147.809 186.627C148.765 187.292 149.894 187.665 151.059 187.7C152.223 187.735 153.373 187.431 154.368 186.825C155.363 186.219 156.159 185.337 156.661 184.286C157.162 183.235 157.347 182.061 157.192 180.908L161.434 145.258Z" fill="#FFB6B6"/>
<path d="M189.365 317.608L195.098 317.607L197.826 295.515H189.363L189.365 317.608Z" fill="#FFB6B6"/>
<path d="M187.423 314.783L196.487 314.242V318.121L205.104 324.067C205.53 324.36 205.85 324.782 206.019 325.27C206.188 325.759 206.196 326.288 206.042 326.782C205.888 327.275 205.58 327.706 205.163 328.012C204.747 328.319 204.243 328.484 203.726 328.484H192.935L191.075 324.647L190.348 328.484H186.28L187.423 314.783Z" fill="#2F2E41"/>
<path d="M156.211 317.608L161.945 317.607L164.672 295.515H156.21L156.211 317.608Z" fill="#FFB6B6"/>
<path d="M154.269 314.783L163.333 314.242V318.121L171.951 324.067C172.376 324.36 172.697 324.782 172.865 325.27C173.034 325.759 173.042 326.288 172.888 326.782C172.734 327.275 172.426 327.706 172.01 328.012C171.593 328.319 171.089 328.484 170.572 328.484H159.781L157.921 324.647L157.195 328.484H153.126L154.269 314.783Z" fill="#2F2E41"/>
<path d="M184.259 95.0942L172.38 95.3269L163.996 104.168L157.274 105.153C154.233 105.598 151.438 107.073 149.355 109.33C147.272 111.587 146.027 114.49 145.83 117.554L146.994 123.943H153.981L158.023 147.651C156.451 151.652 156.345 154.809 159.571 156.05L169.586 174.895L199.164 161.634C200.664 159.057 201.145 156.47 199.612 153.954L201.726 117.662H208.836C208.836 110.874 206.538 105.152 199.785 104.396C197.103 104.106 194.409 103.953 191.711 103.935L184.259 95.0942Z" fill="#E6E6E6"/>
<path d="M199.164 161.634C199.164 161.634 170.284 166.752 159.571 156.05C159.571 156.05 158.483 157.894 156.844 160.953C156.373 161.833 155.463 162.429 154.913 163.495C154.413 164.463 153.128 165.654 152.584 166.752C152.146 167.636 152.848 168.791 152.393 169.745C146.906 181.241 140.496 197.457 141.87 208.165C142.757 215.07 144.587 231.137 146.515 248.395C146.665 249.743 145.445 251.475 145.597 252.834C145.74 254.116 147.254 255.024 147.396 256.309C147.491 257.161 146.434 258.031 146.528 258.883C146.632 259.818 147.888 260.734 147.991 261.665C150.632 285.494 153.05 307.741 153.05 307.741H166.558L169.107 256.931L167.024 238.41L171.915 200.952L178.669 236.548L179.538 256.582L186.676 308.672H199.164V258.246L200.096 255.626L199.164 252.266L200.096 248.647L199.164 244.704V161.634Z" fill="#2F2E41"/>
<path d="M187.904 88.2131C186.064 90.6546 183.447 92.3974 180.483 93.1545C177.519 93.9115 174.385 93.6376 171.598 92.3779C168.811 91.1182 166.536 88.9479 165.148 86.2242C163.761 83.5005 163.343 80.386 163.964 77.3936C164.585 74.4011 166.208 71.7092 168.565 69.7611C170.922 67.813 173.873 66.7249 176.932 66.676C179.991 66.6271 182.976 67.6203 185.394 69.4921C187.812 71.3638 189.521 74.0025 190.237 76.9736C190.276 77.1348 190.309 77.2951 190.34 77.4615C190.719 79.3238 190.697 81.245 190.277 83.0984C189.858 84.9518 189.049 86.6951 187.904 88.2131Z" fill="#FFB6B6"/>
<path d="M185.097 80.5389C184.811 79.1069 184.089 77.7985 183.029 76.7932C183.133 78.1654 182.943 79.5442 182.47 80.8367C178.929 81.15 175.372 80.4461 172.218 78.808C169.842 77.198 166.819 77.3376 163.297 78.808C163.297 77.097 163.634 75.4027 164.29 73.8219C164.945 72.2411 165.906 70.8047 167.117 69.5948C168.328 68.385 169.766 67.4253 171.348 66.7706C172.931 66.1159 174.627 65.7791 176.34 65.7793H178.669C182.128 65.7799 185.445 67.1528 187.891 69.596C190.337 72.0392 191.711 75.3528 191.712 78.808C189.562 79.5781 187.349 80.1574 185.097 80.5389Z" fill="#2F2E41"/>
<path d="M83.2034 246.594C103.897 246.594 120.673 229.837 120.673 209.165C120.673 188.493 103.897 171.735 83.2034 171.735C62.5096 171.735 45.734 188.493 45.734 209.165C45.734 229.837 62.5096 246.594 83.2034 246.594Z" fill="#F0F0F0"/>
<path d="M321.979 74.8591C342.673 74.8591 359.449 58.1013 359.449 37.4295C359.449 16.7578 342.673 0 321.979 0C301.285 0 284.51 16.7578 284.51 37.4295C284.51 58.1013 301.285 74.8591 321.979 74.8591Z" fill="#F0F0F0"/>
<path d="M619.531 252.466C640.224 252.466 657 235.708 657 215.036C657 194.365 640.224 177.607 619.531 177.607C598.837 177.607 582.061 194.365 582.061 215.036C582.061 235.708 598.837 252.466 619.531 252.466Z" fill="#F0F0F0"/>
<path d="M389.571 41.5112V126.385C389.571 128.148 388.875 129.84 387.634 131.093C386.393 132.346 384.706 133.06 382.942 133.078C382.917 133.081 382.893 133.082 382.868 133.081H372.979C365.067 133.081 357.479 129.941 351.884 124.352C346.289 118.764 343.146 111.183 343.146 103.279V41.5112C343.146 39.7354 343.852 38.0323 345.109 36.7766C346.366 35.5209 348.071 34.8154 349.849 34.8154H353.856C352 40.2248 377.194 42.5023 378.577 34.8154H382.868C384.646 34.8154 386.351 35.5209 387.608 36.7766C388.865 38.0323 389.571 39.7354 389.571 41.5112Z" fill="#41B883"/>
<path d="M360.225 28.4688C360.226 28.2362 360.318 28.0131 360.483 27.8486C360.648 27.6841 360.871 27.5916 361.104 27.5913H367.077C367.31 27.592 367.532 27.6847 367.697 27.8492C367.861 28.0137 367.953 28.2365 367.953 28.4688C367.953 28.7011 367.861 28.9239 367.697 29.0884C367.532 29.2529 367.31 29.3456 367.077 29.3463H361.104C360.871 29.346 360.648 29.2535 360.483 29.089C360.318 28.9245 360.226 28.7015 360.225 28.4688Z" fill="#3F3D56"/>
<path d="M384.92 143.847H347.145C344.215 143.844 341.405 142.679 339.332 140.609C337.26 138.539 336.094 135.732 336.091 132.805V73.4742C335.884 73.3254 335.715 73.1294 335.598 72.9023C335.482 72.6753 335.421 72.4238 335.422 72.1687V66.2017C335.421 65.9467 335.482 65.6953 335.598 65.4683C335.715 65.2413 335.884 65.0453 336.091 64.8966V63.2951C335.884 63.1464 335.715 62.9504 335.598 62.7234C335.482 62.4964 335.421 62.245 335.422 61.99V56.0226C335.421 55.7676 335.482 55.5162 335.598 55.2892C335.715 55.0622 335.884 54.8662 336.091 54.7175V51.8231C335.835 51.6857 335.621 51.4813 335.472 51.2319C335.323 50.9824 335.245 50.6972 335.246 50.4068V44.4399C335.245 44.1494 335.323 43.8642 335.472 43.6147C335.621 43.3652 335.835 43.1607 336.091 43.0233V35.0921C336.094 32.1645 337.26 29.3578 339.332 27.2876C341.405 25.2175 344.215 24.0531 347.145 24.0498H384.92C387.851 24.0531 390.661 25.2176 392.733 27.2877C394.806 29.3578 395.971 32.1646 395.975 35.0922V52.3803C396.174 52.5047 396.338 52.6776 396.452 52.8828C396.565 53.0879 396.625 53.3186 396.625 53.5532V64.931C396.625 65.1656 396.565 65.3964 396.452 65.6016C396.338 65.8068 396.174 65.9798 395.975 66.1042V132.805C395.971 135.732 394.806 138.539 392.733 140.609C390.661 142.679 387.851 143.844 384.92 143.847ZM347.145 25.5176C344.604 25.5205 342.168 26.5301 340.371 28.3251C338.574 30.12 337.563 32.5537 337.56 35.0922V44.2718L336.854 44.2991C336.817 44.3004 336.782 44.3157 336.756 44.3419C336.73 44.3681 336.716 44.4032 336.715 44.4399V50.4068C336.716 50.4435 336.731 50.4785 336.756 50.5047C336.782 50.5309 336.817 50.5462 336.854 50.5477L337.56 50.5745V55.7481L337.001 55.8857C336.97 55.8932 336.943 55.9107 336.923 55.9354C336.903 55.9602 336.892 55.9908 336.891 56.0226V61.99C336.892 62.0218 336.903 62.0524 336.923 62.0772C336.943 62.1019 336.97 62.1194 337.001 62.1269L337.56 62.2645V65.9272L337.001 66.0648C336.97 66.0723 336.943 66.0897 336.923 66.1145C336.903 66.1393 336.892 66.1699 336.891 66.2017V72.1687C336.892 72.2006 336.903 72.2313 336.923 72.2561C336.943 72.2809 336.97 72.2984 337.001 72.3059L337.56 72.4435V132.805C337.563 135.343 338.574 137.777 340.371 139.572C342.168 141.367 344.604 142.376 347.145 142.379H384.92C387.462 142.376 389.898 141.367 391.695 139.572C393.492 137.777 394.502 135.343 394.505 132.805V64.8475H395.156V53.6371H394.505V35.0921C394.502 32.5537 393.492 30.1201 391.695 28.3251C389.898 26.5302 387.462 25.5205 384.92 25.5176L347.145 25.5176Z" fill="#3F3D56"/>
<path d="M370.415 29.3463C370.9 29.3463 371.294 28.9534 371.294 28.4688C371.294 27.9842 370.9 27.5913 370.415 27.5913C369.93 27.5913 369.537 27.9842 369.537 28.4688C369.537 28.9534 369.93 29.3463 370.415 29.3463Z" fill="#3F3D56"/>
<path d="M179.324 198.452H81.0317C79.6359 198.448 78.2982 197.893 77.3111 196.907C76.324 195.921 75.7678 194.585 75.764 193.191V145.348C75.7676 143.953 76.3237 142.617 77.3106 141.631C78.2976 140.645 79.6352 140.089 81.031 140.085H179.324C180.72 140.089 182.057 140.644 183.044 141.63C184.031 142.616 184.588 143.952 184.591 145.347V193.19C184.588 194.584 184.032 195.92 183.045 196.907C182.058 197.893 180.72 198.448 179.324 198.452Z" fill="white"/>
<path d="M179.324 198.452H81.0317C79.6359 198.448 78.2982 197.893 77.3111 196.907C76.324 195.921 75.7678 194.585 75.764 193.191V145.348C75.7676 143.953 76.3237 142.617 77.3106 141.631C78.2976 140.645 79.6352 140.089 81.031 140.085H179.324C180.72 140.089 182.057 140.644 183.044 141.63C184.031 142.616 184.588 143.952 184.591 145.347V193.19C184.588 194.584 184.032 195.92 183.045 196.907C182.058 197.893 180.72 198.448 179.324 198.452ZM81.0317 141.553C80.0252 141.556 79.0606 141.957 78.3489 142.668C77.6372 143.379 77.2362 144.343 77.2334 145.348V193.19C77.2363 194.195 77.6375 195.159 78.3494 195.87C79.0612 196.581 80.0259 196.981 81.0325 196.984H179.323C180.33 196.981 181.294 196.581 182.006 195.87C182.718 195.158 183.119 194.195 183.122 193.189V145.348C183.119 144.342 182.718 143.379 182.006 142.668C181.294 141.957 180.33 141.556 179.323 141.553L81.0317 141.553Z" fill="#3F3D56"/>
<path d="M135.446 191.382C116.061 191.382 95.8469 191.196 88.3049 191.076C87.3126 191.056 86.3676 190.649 85.6717 189.942C84.9758 189.235 84.5841 188.284 84.5803 187.293V147.69C84.5807 147.335 84.7218 146.994 84.9728 146.743C85.2238 146.492 85.5643 146.35 85.9197 146.349H174.433C174.788 146.349 175.129 146.49 175.38 146.741C175.632 146.991 175.774 147.331 175.775 147.686V174.556C175.758 178.943 174.022 183.147 170.937 186.269C167.853 189.391 163.666 191.181 159.276 191.254C152.247 191.346 143.924 191.382 135.446 191.382Z" fill="#41B883"/>
<path d="M169.179 172.088H89.2002C88.5305 172.086 87.8776 171.878 87.3303 171.493C86.7829 171.108 86.3677 170.563 86.1409 169.934L77.0885 144.565C76.9141 144.076 76.8597 143.552 76.93 143.037C77.0003 142.522 77.1931 142.032 77.4924 141.607C77.7917 141.183 78.1886 140.836 78.6499 140.596C79.1111 140.357 79.6232 140.231 80.1432 140.23L180.115 140.091C180.59 140.09 181.06 140.194 181.49 140.394C181.921 140.595 182.303 140.887 182.608 141.251C182.913 141.615 183.135 142.041 183.258 142.5C183.38 142.958 183.401 143.438 183.318 143.905L183.395 143.938L183.108 144.607L183.105 144.614L172.162 170.121C171.912 170.705 171.496 171.203 170.966 171.553C170.436 171.902 169.814 172.089 169.179 172.088ZM180.119 141.559L80.146 141.698C79.8612 141.698 79.5806 141.767 79.328 141.898C79.0753 142.03 78.8578 142.219 78.6938 142.452C78.5299 142.685 78.4242 142.953 78.3857 143.235C78.3472 143.517 78.3769 143.804 78.4725 144.072L87.5245 169.44C87.6489 169.785 87.8766 170.083 88.1766 170.294C88.4765 170.505 88.8343 170.619 89.2013 170.62H169.179C169.526 170.62 169.867 170.519 170.157 170.327C170.447 170.136 170.674 169.863 170.811 169.544L181.754 144.036C181.87 143.765 181.917 143.47 181.891 143.178C181.865 142.885 181.767 142.603 181.605 142.357C181.442 142.112 181.222 141.91 180.963 141.771C180.704 141.632 180.414 141.559 180.119 141.559Z" fill="#3F3D56"/>
<path d="M130.029 177.61C133.487 177.61 136.291 174.809 136.291 171.354C136.291 167.899 133.487 165.098 130.029 165.098C126.57 165.098 123.766 167.899 123.766 171.354C123.766 174.809 126.57 177.61 130.029 177.61Z" fill="white"/>
<path d="M366.6 123.3C370.059 123.3 372.863 120.499 372.863 117.044C372.863 113.589 370.059 110.789 366.6 110.789C363.141 110.789 360.338 113.589 360.338 117.044C360.338 120.499 363.141 123.3 366.6 123.3Z" fill="white"/>
<path d="M603.463 207.785L586.734 191.287C585.919 190.477 584.953 189.836 583.89 189.401C582.828 188.965 581.689 188.743 580.54 188.748H580.482C579.324 188.751 578.179 188.984 577.112 189.432C576.045 189.881 575.078 190.536 574.266 191.36C570.525 195.142 568.398 200.225 568.331 205.54C568.264 210.856 570.262 215.991 573.906 219.866C574.082 220.056 574.266 220.24 574.45 220.423C575.467 221.434 576.59 222.332 577.8 223.102C581.107 225.237 584.964 226.366 588.901 226.353H589.026C591.729 226.344 594.403 225.8 596.893 224.752C599.384 223.704 601.642 222.173 603.536 220.247C605.178 218.583 606.092 216.337 606.078 214.001C606.065 211.665 605.124 209.43 603.463 207.785ZM602.493 219.212C599.387 222.338 595.297 224.299 590.913 224.764C586.529 225.229 582.118 224.17 578.424 221.766C577.368 221.068 576.381 220.269 575.478 219.381C571.874 215.825 569.831 210.984 569.799 205.923C569.767 200.862 571.749 195.996 575.309 192.395C575.986 191.706 576.793 191.159 577.684 190.785C578.574 190.41 579.53 190.217 580.496 190.215H580.54C581.497 190.212 582.445 190.397 583.33 190.76C584.215 191.122 585.019 191.656 585.698 192.329L602.427 208.835C603.812 210.203 604.597 212.064 604.609 214.01C604.621 215.956 603.86 217.827 602.493 219.212Z" fill="#3F3D56"/>
<path d="M548.574 153.637L531.845 137.132C530.198 135.5 527.971 134.586 525.651 134.592H525.6C524.441 134.597 523.294 134.831 522.226 135.281C521.158 135.73 520.19 136.387 519.377 137.212C516.285 140.35 514.28 144.394 513.655 148.752C513.031 153.111 513.821 157.554 515.909 161.431L515.917 161.439C516.778 163.025 517.848 164.488 519.098 165.791C519.237 165.952 519.399 166.114 519.561 166.275C523.402 170.085 528.599 172.217 534.012 172.205H534.144C536.847 172.194 539.521 171.648 542.012 170.599C544.502 169.549 546.76 168.018 548.655 166.092C549.468 165.269 550.111 164.294 550.547 163.222C550.983 162.151 551.204 161.004 551.197 159.848C551.189 158.691 550.954 157.548 550.504 156.482C550.053 155.416 549.398 154.45 548.574 153.637ZM547.604 165.064C545.845 166.851 543.75 168.273 541.438 169.247C539.127 170.22 536.645 170.727 534.137 170.738H534.012C530.245 170.736 526.562 169.622 523.427 167.535C520.292 165.448 517.845 162.482 516.393 159.01C514.941 155.537 514.549 151.713 515.267 148.019C515.985 144.325 517.78 140.925 520.428 138.247C521.797 136.864 523.66 136.08 525.608 136.068C527.556 136.055 529.429 136.815 530.816 138.181L547.545 154.68C548.929 156.05 549.713 157.913 549.724 159.86C549.735 161.807 548.972 163.678 547.604 165.064Z" fill="#3F3D56"/>
<path d="M604.532 212.972L586.089 194.776C584.88 193.585 583.247 192.923 581.549 192.933C579.851 192.944 578.227 193.627 577.032 194.832C575.538 196.34 574.356 198.127 573.553 200.092C572.751 202.057 572.344 204.16 572.356 206.282C572.368 208.404 572.799 210.502 573.623 212.458C574.448 214.413 575.65 216.187 577.161 217.678C578.672 219.169 580.463 220.348 582.431 221.148C584.398 221.947 586.504 222.351 588.629 222.337C590.753 222.322 592.853 221.89 594.81 221.064C596.766 220.238 598.541 219.035 600.032 217.524L604.532 212.972Z" fill="#41B883"/>
<path d="M549.646 158.821L531.203 140.625C529.994 139.435 528.361 138.772 526.663 138.782C524.965 138.793 523.341 139.476 522.146 140.681C520.652 142.189 519.47 143.977 518.668 145.941C517.865 147.906 517.458 150.009 517.47 152.131C517.482 154.253 517.913 156.352 518.737 158.307C519.562 160.263 520.764 162.037 522.275 163.528C523.787 165.019 525.577 166.197 527.545 166.997C529.513 167.796 531.619 168.2 533.743 168.186C535.867 168.171 537.967 167.739 539.924 166.913C541.881 166.087 543.655 164.884 545.146 163.373L549.646 158.821Z" fill="#41B883"/>
<path d="M584.265 224.306L583.824 225.465C581.753 224.68 579.744 223.892 577.8 223.102C543.357 209.062 526.915 192.63 515.917 161.439L515.909 161.431C515.388 159.963 514.881 158.461 514.388 156.925L515.549 156.551C515.937 158.028 516.505 159.453 517.239 160.793C517.841 162.503 518.461 164.169 519.098 165.791C529.435 192.116 544.68 207.161 573.906 219.865C575.375 220.504 576.882 221.138 578.424 221.766C580.216 222.932 582.19 223.791 584.265 224.306Z" fill="#3F3D56"/>
<path d="M531.538 170.869L530.505 171.914L568.664 209.562L569.697 208.518L531.538 170.869Z" fill="#3F3D56"/>
<path d="M208.481 139.675L208.5 115.556L194.308 116.823L199.316 132.034L181.135 159.567C179.998 159.821 178.96 160.401 178.147 161.235C177.334 162.069 176.782 163.122 176.558 164.264C176.333 165.406 176.446 166.589 176.883 167.668C177.32 168.747 178.062 169.676 179.018 170.341C179.974 171.006 181.103 171.379 182.268 171.414C183.432 171.45 184.582 171.146 185.577 170.539C186.572 169.933 187.368 169.051 187.87 168C188.371 166.95 188.556 165.776 188.401 164.622L208.481 139.675Z" fill="#FFB6B6"/>
</g>
<defs>
<clipPath id="clip0_80_268">
<rect width="657" height="329" fill="white"/>
</clipPath>
</defs>
</svg>
