<svg width="161" height="161" viewBox="0 0 161 161" fill="none" xmlns="http://www.w3.org/2000/svg">
<rect x="0.0518799" y="0.510864" width="160.139" height="160.139" rx="20" fill="#41B883"/>
<path d="M66.2059 102.535L92.8095 98.6602C92.8095 90.2658 104.174 79.8052 104.174 65.5993C104.174 51.7809 93.197 40.5454 79.6368 40.5454C66.0767 40.5454 55.0995 51.7809 55.0995 65.5993C55.0995 79.676 66.2059 90.1367 66.2059 98.5311V102.535Z" stroke="white" stroke-width="3" stroke-linecap="round" stroke-linejoin="round"/>
<path d="M68.014 108.088L92.2931 104.343" stroke="white" stroke-width="3" stroke-linecap="round" stroke-linejoin="round"/>
<path d="M68.014 113.124L92.2931 109.379" stroke="white" stroke-width="3" stroke-linecap="round" stroke-linejoin="round"/>
<path d="M89.0644 116.869C89.0644 118.936 85.0609 120.614 80.0243 120.614C74.9877 120.614 70.9843 118.936 70.9843 116.869" stroke="white" stroke-width="3" stroke-linecap="round" stroke-linejoin="round"/>
<path d="M76.2788 93.2362C76.2788 77.2224 71.759 71.54 71.759 71.54C71.759 71.54 73.5669 75.5435 75.6331 75.5435C77.8284 75.5435 79.5072 73.7355 79.5072 71.54C79.5072 73.7355 81.3151 75.5435 83.3813 75.5435C85.5766 75.5435 87.2554 71.54 87.2554 71.54C87.2554 71.54 83.6396 80.1927 83.6396 93.2362" stroke="white" stroke-width="3" stroke-linecap="round" stroke-linejoin="round"/>
</svg>
