<svg width="161" height="161" viewBox="0 0 161 161" fill="none" xmlns="http://www.w3.org/2000/svg">
<rect x="0.0518799" width="160.139" height="160.139" rx="20" fill="#41B883"/>
<path d="M116.152 78.5679V49.2092C116.152 45.53 113.159 42.5367 109.48 42.5367H50.7625C47.0833 42.5367 44.09 45.53 44.09 49.2092V69.2265C41.8828 69.2265 40.0865 71.0227 40.0865 73.23V113.265C40.0865 115.472 41.8828 117.268 44.09 117.268H73.4487C75.656 117.268 77.4522 115.472 77.4522 113.265H88.6366C89.895 113.265 91.0546 112.691 91.818 111.691C92.5813 110.692 92.8295 109.421 92.4986 108.208L89.875 98.5852H97.4695V113.265C97.4695 115.472 99.2657 117.268 101.473 117.268H116.152C118.36 117.268 120.156 115.472 120.156 113.265V82.5714C120.156 80.3641 118.36 78.5679 116.152 78.5679ZM74.7832 113.265C74.7832 114 74.184 114.599 73.4487 114.599H44.09C43.3547 114.599 42.7555 114 42.7555 113.265V110.596H74.7832V113.265ZM74.7832 107.927H42.7555V78.5679H74.7832V107.927ZM74.7832 75.8989H42.7555V73.23C42.7555 72.4947 43.3547 71.8955 44.09 71.8955H73.4487C74.184 71.8955 74.7832 72.4947 74.7832 73.23V75.8989ZM89.9243 108.91C90.0351 109.315 89.9524 109.738 89.6975 110.071C89.4426 110.405 89.0569 110.596 88.6366 110.596H77.4522V107.927H89.6561L89.9243 108.91ZM77.4522 105.258V98.5852H87.1086L88.9288 105.258H77.4522ZM97.4695 95.9163H77.4522V87.9093H97.4695V95.9163ZM97.4695 82.5714V85.2404H77.4522V73.23C77.4522 71.0227 75.656 69.2265 73.4487 69.2265H46.759V49.2092C46.759 47.0019 48.5552 45.2057 50.7625 45.2057H109.48C111.687 45.2057 113.483 47.0019 113.483 49.2092V78.5679H101.473C99.2657 78.5679 97.4695 80.3641 97.4695 82.5714ZM117.487 113.265C117.487 114 116.888 114.599 116.152 114.599H101.473C100.738 114.599 100.139 114 100.139 113.265V110.596H117.487V113.265ZM117.487 107.927H100.139V87.9093H117.487V107.927ZM117.487 85.2404H100.139V82.5714C100.139 81.8361 100.738 81.2369 101.473 81.2369H116.152C116.888 81.2369 117.487 81.8361 117.487 82.5714V85.2404Z" fill="white"/>
<path d="M52.4875 92.3022L47.1494 97.6403L49.0366 99.5275L54.3747 94.1895L52.4875 92.3022Z" fill="white"/>
<path d="M68.5008 85.6302L52.4868 101.644L54.374 103.531L70.388 87.5174L68.5008 85.6302Z" fill="white"/>
<path d="M63.1621 81.6287L55.1556 89.6351L57.0429 91.5224L65.0493 83.5159L63.1621 81.6287Z" fill="white"/>
<path d="M109.867 90.9712L103.196 97.6425L105.083 99.5297L111.754 92.8584L109.867 90.9712Z" fill="white"/>
<path d="M112.535 96.3148L105.864 102.986L107.751 104.873L114.422 98.2021L112.535 96.3148Z" fill="white"/>
<path d="M83.1791 57.6075L75.1726 65.614L77.0598 67.5012L85.0663 59.4948L83.1791 57.6075Z" fill="white"/>
<path d="M95.1902 54.939L87.1837 62.9454L89.0709 64.8327L97.0774 56.8262L95.1902 54.939Z" fill="white"/>
<path d="M84.5136 65.6158L79.1755 70.9539L81.0628 72.8411L86.4008 67.5031L84.5136 65.6158Z" fill="white"/>
<path d="M91.1918 49.6038L85.8406 54.9551L87.7278 56.8423L93.0791 51.4911L91.1918 49.6038Z" fill="white"/>
<path d="M52.097 47.8746H49.428V50.5436H52.097V47.8746Z" fill="white"/>
<path d="M57.4348 47.8746H54.7659V50.5436H57.4348V47.8746Z" fill="white"/>
<path d="M62.7729 47.8746H60.1039V50.5436H62.7729V47.8746Z" fill="white"/>
</svg>
