<svg width="161" height="161" viewBox="0 0 161 161" fill="none" xmlns="http://www.w3.org/2000/svg">
<rect x="0.0649414" width="160.139" height="160.139" rx="20" fill="#41B883"/>
<path fill-rule="evenodd" clip-rule="evenodd" d="M120.169 40.0347C118.388 64.2915 112.066 81.8505 101.205 92.7118C99.2788 94.638 97.1697 96.3989 94.8777 97.9945L94.8776 107.442L82.2351 120.084L74.5203 106.584L53.6359 85.6973L40.0995 77.9622L52.742 65.3197L62.2396 65.3198C63.8208 63.0257 65.5714 60.9186 67.4916 58.9984C78.3529 48.1371 95.912 41.8159 120.169 40.0347ZM110.687 49.5123L108.883 49.7858C92.71 52.331 80.9435 57.466 73.4513 64.9582C68.9411 69.4684 65.5104 75.3413 63.1871 82.6797L63.033 83.1751L77.1547 97.2968L77.8533 97.0772C84.4532 94.8614 89.8745 91.7519 94.1895 87.7666L95.2452 86.7521C102.737 79.2599 107.872 67.4934 110.418 51.32L110.687 49.5123ZM55.1105 93.2454L46.1709 102.185L40.2112 96.2253L49.1508 87.2857L55.1105 93.2454ZM64.0501 102.185L49.1508 117.084L43.191 111.125L58.0904 96.2253L64.0501 102.185ZM67.03 105.165L72.9897 111.125L64.0501 120.064L58.0904 114.105L67.03 105.165ZM88.5625 65.3197C92.0536 65.3197 94.8837 68.1498 94.8837 71.641C94.8837 75.1321 92.0536 77.9622 88.5625 77.9622C85.0713 77.9622 82.2412 75.1321 82.2412 71.641C82.2412 68.1498 85.0713 65.3197 88.5625 65.3197Z" fill="white"/>
</svg>
