<svg width="161" height="161" viewBox="0 0 161 161" fill="none" xmlns="http://www.w3.org/2000/svg">
<rect x="0.31604" y="0.510864" width="160.139" height="160.139" rx="20" fill="#41B883"/>
<path d="M80.3852 54.3074C75.1278 54.3074 69.9219 55.3429 65.0646 57.3548C60.2074 59.3668 55.794 62.3157 52.0765 66.0332C48.3589 69.7508 45.41 74.1642 43.398 79.0214C41.3861 83.8786 40.3506 89.0846 40.3506 94.342C40.3672 98.8493 41.1449 103.321 42.6508 107.57C42.0117 104.899 41.6816 102.164 41.6668 99.418C41.6672 89.9098 45.4445 80.7911 52.1679 74.0677C58.8912 67.3444 68.0099 63.5671 77.5182 63.5667C84.628 63.5736 91.5752 65.6943 97.4768 69.6592L104.618 62.5176C97.6562 57.2038 89.1436 54.3197 80.3852 54.3074ZM110.906 66.3295C110.067 66.3436 109.214 66.6707 108.509 67.2678L77.8374 93.2278C76.4269 94.422 73.1128 97.9383 77.8308 102.656C82.5498 107.375 86.0649 104.054 87.2595 102.643L113.226 71.9855C114.421 70.5751 114.533 68.5747 113.226 67.2678C112.573 66.6144 111.746 66.3154 110.906 66.3295ZM117.077 78.3646L110.333 85.1088C112.272 89.5235 113.3 94.2839 113.356 99.1052H120.081C120.289 97.5257 120.402 95.9351 120.42 94.342C120.415 88.8432 119.277 83.4044 117.077 78.3646Z" fill="white"/>
</svg>
