<svg width="44" height="34" viewBox="0 0 44 34" fill="none" xmlns="http://www.w3.org/2000/svg">
<path d="M7.21517 30.6036L11.3258 26.86C11.5143 26.6888 11.7576 26.5938 12.0098 26.5929H21.9642C22.0081 26.5934 22.0516 26.5849 22.0922 26.568C22.1328 26.551 22.1697 26.526 22.2007 26.4943C22.2318 26.4626 22.2563 26.4249 22.2728 26.3834C22.2894 26.3419 22.2977 26.2974 22.2972 26.2526V24.1155H24.349V26.2526C24.3461 26.9 24.0932 27.5201 23.6453 27.9779C23.1973 28.4357 22.5905 28.6941 21.957 28.697H12.3965L6.91081 33.6921C6.76773 33.8384 6.58556 33.9383 6.38715 33.9792C6.18874 34.0202 5.98292 34.0003 5.79552 33.9221C5.60811 33.8439 5.44747 33.711 5.33374 33.5398C5.22002 33.3687 5.15827 33.1671 5.15625 32.9602V28.697H2.39551C1.76138 28.6951 1.15371 28.4371 0.704973 27.9792C0.256238 27.5212 0.00283237 26.9006 0 26.2526L0 10.4622C0.00745441 9.81565 0.262343 9.19775 0.710082 8.74086C1.15782 8.28397 1.76282 8.0244 2.39551 8.01775H15.5225V10.1219H2.39551C2.30848 10.127 2.22628 10.1644 2.16432 10.2271C2.10235 10.2898 2.06488 10.3734 2.05892 10.4622V26.2526C2.05924 26.297 2.06828 26.341 2.0855 26.3819C2.10272 26.4227 2.12777 26.4596 2.15918 26.4904C2.22286 26.5532 2.30705 26.5897 2.39551 26.5929H6.18392C6.45742 26.5929 6.71973 26.7039 6.91312 26.9016C7.10652 27.0992 7.21517 27.3673 7.21517 27.6468V30.6036ZM7.29037 23.4751L10.599 13.2617H13.7607L17.0693 23.4751H14.4482L13.8932 21.6161H10.4378L9.89714 23.4751H7.29037ZM11.0251 19.4827H13.306L12.1745 15.3L11.0251 19.4827ZM27.4391 4.8853H30.5544V4.0656C30.5544 3.99863 30.5804 3.9344 30.6267 3.88705C30.6731 3.8397 30.7359 3.8131 30.8014 3.8131H32.4665C32.4988 3.81309 32.5307 3.81965 32.5605 3.83238C32.5903 3.84512 32.6173 3.86377 32.6399 3.88727C32.6626 3.91077 32.6804 3.93863 32.6925 3.96924C32.7045 3.99986 32.7104 4.03261 32.71 4.0656V4.8853H36.2048C36.237 4.8853 36.269 4.89185 36.2988 4.90459C36.3285 4.91732 36.3555 4.93598 36.3782 4.95947C36.4009 4.98297 36.4187 5.01084 36.4307 5.04145C36.4428 5.07206 36.4487 5.10482 36.4482 5.1378V6.76989C36.4482 6.83589 36.4226 6.89918 36.3769 6.94585C36.3313 6.99252 36.2693 7.01873 36.2048 7.01873H35.6497C35.5764 7.49976 35.4675 7.9744 35.3239 8.43858V8.46054C35.1594 8.98416 34.951 9.49227 34.7009 9.97919C34.4713 10.4135 34.2154 10.8327 33.9346 11.2344C33.6947 11.6003 33.4297 11.9297 33.1468 12.27C33.5515 12.7699 33.9919 13.2384 34.4645 13.6715C35.0371 14.1745 35.6464 14.632 36.2871 15.0401C36.3142 15.0576 36.3376 15.0804 36.3561 15.1072C36.3745 15.134 36.3876 15.1642 36.3946 15.1962C36.4016 15.2281 36.4023 15.2612 36.3968 15.2934C36.3912 15.3257 36.3795 15.3565 36.3623 15.3841L35.5065 16.7491C35.4888 16.7792 35.4651 16.8052 35.437 16.8254C35.4089 16.8456 35.377 16.8596 35.3433 16.8665C35.3096 16.8734 35.2749 16.873 35.2413 16.8654C35.2078 16.8578 35.1761 16.8431 35.1484 16.8223C34.4466 16.3766 33.7787 15.8776 33.1504 15.3292C32.6397 14.8635 32.1611 14.3622 31.7181 13.8289C31.2598 14.2461 30.848 14.6376 30.4362 15.0035C29.9492 15.4134 29.4372 15.8086 28.8356 16.2331C28.8086 16.2544 28.7776 16.2698 28.7445 16.2782C28.7113 16.2867 28.6769 16.288 28.6432 16.2822C28.6096 16.2763 28.5775 16.2634 28.549 16.2443C28.5205 16.2251 28.4961 16.2001 28.4775 16.1709L27.5716 14.8316C27.5508 14.804 27.5357 14.7722 27.5275 14.7384C27.5192 14.7046 27.5179 14.6693 27.5236 14.635C27.5293 14.6006 27.542 14.5678 27.5607 14.5386C27.5794 14.5095 27.6039 14.4846 27.6325 14.4656C28.2269 14.0484 28.7067 13.6642 29.1937 13.2653C29.6091 12.8994 30.0101 12.5335 30.4434 12.109C30.0819 11.5864 29.7508 11.0426 29.4515 10.4805C29.1103 9.81179 28.8402 9.1076 28.6458 8.38003C28.6371 8.34855 28.6345 8.31563 28.6383 8.28313C28.642 8.25064 28.652 8.21922 28.6676 8.19067C28.6832 8.16212 28.7042 8.137 28.7294 8.11674C28.7545 8.09649 28.7833 8.0815 28.8141 8.07264L30.3431 7.63717C30.3739 7.62825 30.4061 7.62562 30.4379 7.62944C30.4697 7.63326 30.5005 7.64345 30.5284 7.65942C30.5563 7.6754 30.5809 7.69685 30.6007 7.72254C30.6205 7.74823 30.6352 7.77767 30.6439 7.80916C30.8899 8.77505 31.3047 9.6875 31.8685 10.5025L32.3232 9.88039C32.5196 9.58946 32.7001 9.28771 32.8639 8.97651C33.0376 8.63424 33.1837 8.27811 33.3008 7.91163C33.3949 7.61845 33.4737 7.3204 33.5371 7.01873H27.4499C27.385 7.01874 27.3227 6.99264 27.2764 6.94608C27.2302 6.89951 27.2037 6.83622 27.2028 6.76989V5.12316C27.2028 5.0562 27.2288 4.99197 27.2752 4.94462C27.3215 4.89727 27.3843 4.87066 27.4499 4.87066L27.4391 4.8853ZM37.1071 25.678L31.6035 20.6793H22.0358C21.4023 20.6754 20.7957 20.4168 20.3473 19.9593C19.899 19.5018 19.645 18.8823 19.6403 18.2348V2.44814C19.6459 1.79822 19.9035 1.1771 20.3564 0.720902L20.4281 0.655033C20.865 0.238937 21.4386 0.0052328 22.0358 0L41.6045 0C42.2394 0.00591789 42.846 0.269157 43.291 0.73188L43.3591 0.805068C43.7673 1.25384 43.996 1.84274 44 2.45546V18.2348C43.9953 18.8823 43.7413 19.5018 43.293 19.9593C42.8446 20.4168 42.238 20.6754 41.6045 20.6793H38.8473V24.9315C38.8443 25.1383 38.7819 25.3397 38.6677 25.5105C38.5535 25.6813 38.3927 25.8139 38.2052 25.892C38.0178 25.97 37.812 25.9899 37.6136 25.9493C37.4151 25.9086 37.2327 25.8092 37.0892 25.6634L37.1071 25.678ZM32.6777 18.8423L36.7848 22.5858V19.629C36.7848 19.3495 36.8935 19.0815 37.0869 18.8838C37.2803 18.6862 37.5426 18.5751 37.8161 18.5751H41.6045C41.648 18.5746 41.6909 18.5653 41.7309 18.5477C41.7708 18.5301 41.807 18.5046 41.8372 18.4727C41.8693 18.4422 41.895 18.4054 41.9129 18.3645C41.9307 18.3237 41.9403 18.2795 41.9411 18.2348V2.44814C41.9375 2.37065 41.9099 2.29632 41.8623 2.23589L41.8372 2.19564C41.775 2.13229 41.6922 2.09452 41.6045 2.08952H22.0358C21.9616 2.10182 21.8935 2.13918 21.8424 2.19564H21.8031C21.7718 2.22656 21.7469 2.2635 21.7297 2.30432C21.7124 2.34515 21.7033 2.38905 21.7028 2.4335V18.2348C21.7023 18.2796 21.7106 18.3241 21.7272 18.3656C21.7437 18.4071 21.7682 18.4448 21.7993 18.4765C21.8303 18.5082 21.8672 18.5333 21.9078 18.5502C21.9484 18.5671 21.9919 18.5756 22.0358 18.5751H31.9938C32.2462 18.575 32.4898 18.6701 32.6777 18.8423Z" fill="white"/>
</svg>
