<svg width="270" height="48" viewBox="0 0 270 48" fill="none" xmlns="http://www.w3.org/2000/svg">
<path d="M80.956 11.908V14.572H70.048V23.032H78.904V25.696H70.048V37H66.772V11.908H80.956ZM83.6886 27.064C83.6886 25.048 84.0966 23.284 84.9126 21.772C85.7286 20.236 86.8446 19.048 88.2606 18.208C89.7006 17.368 91.2966 16.948 93.0486 16.948C94.7766 16.948 96.2766 17.32 97.5486 18.064C98.8206 18.808 99.7686 19.744 100.393 20.872V17.272H103.705V37H100.393V33.328C99.7446 34.48 98.7726 35.44 97.4766 36.208C96.2046 36.952 94.7166 37.324 93.0126 37.324C91.2606 37.324 89.6766 36.892 88.2606 36.028C86.8446 35.164 85.7286 33.952 84.9126 32.392C84.0966 30.832 83.6886 29.056 83.6886 27.064ZM100.393 27.1C100.393 25.612 100.093 24.316 99.4926 23.212C98.8926 22.108 98.0766 21.268 97.0446 20.692C96.0366 20.092 94.9206 19.792 93.6966 19.792C92.4726 19.792 91.3566 20.08 90.3486 20.656C89.3406 21.232 88.5366 22.072 87.9366 23.176C87.3366 24.28 87.0366 25.576 87.0366 27.064C87.0366 28.576 87.3366 29.896 87.9366 31.024C88.5366 32.128 89.3406 32.98 90.3486 33.58C91.3566 34.156 92.4726 34.444 93.6966 34.444C94.9206 34.444 96.0366 34.156 97.0446 33.58C98.0766 32.98 98.8926 32.128 99.4926 31.024C100.093 29.896 100.393 28.588 100.393 27.1ZM108.017 27.1C108.017 25.06 108.425 23.284 109.241 21.772C110.057 20.236 111.185 19.048 112.625 18.208C114.089 17.368 115.757 16.948 117.629 16.948C120.053 16.948 122.045 17.536 123.605 18.712C125.189 19.888 126.233 21.52 126.737 23.608H123.209C122.873 22.408 122.213 21.46 121.229 20.764C120.269 20.068 119.069 19.72 117.629 19.72C115.757 19.72 114.245 20.368 113.093 21.664C111.941 22.936 111.365 24.748 111.365 27.1C111.365 29.476 111.941 31.312 113.093 32.608C114.245 33.904 115.757 34.552 117.629 34.552C119.069 34.552 120.269 34.216 121.229 33.544C122.189 32.872 122.849 31.912 123.209 30.664H126.737C126.209 32.68 125.153 34.3 123.569 35.524C121.985 36.724 120.005 37.324 117.629 37.324C115.757 37.324 114.089 36.904 112.625 36.064C111.185 35.224 110.057 34.036 109.241 32.5C108.425 30.964 108.017 29.164 108.017 27.1ZM140.9 16.912C142.388 16.912 143.732 17.236 144.932 17.884C146.132 18.508 147.068 19.456 147.74 20.728C148.436 22 148.784 23.548 148.784 25.372V37H145.544V25.84C145.544 23.872 145.052 22.372 144.068 21.34C143.084 20.284 141.74 19.756 140.036 19.756C138.308 19.756 136.928 20.296 135.896 21.376C134.888 22.456 134.384 24.028 134.384 26.092V37H131.108V10.36H134.384V20.08C135.032 19.072 135.92 18.292 137.048 17.74C138.2 17.188 139.484 16.912 140.9 16.912ZM155.827 14.068C155.203 14.068 154.675 13.852 154.243 13.42C153.811 12.988 153.595 12.46 153.595 11.836C153.595 11.212 153.811 10.684 154.243 10.252C154.675 9.82 155.203 9.604 155.827 9.604C156.427 9.604 156.931 9.82 157.339 10.252C157.771 10.684 157.987 11.212 157.987 11.836C157.987 12.46 157.771 12.988 157.339 13.42C156.931 13.852 156.427 14.068 155.827 14.068ZM157.411 17.272V37H154.135V17.272H157.411ZM172.607 16.912C175.007 16.912 176.951 17.644 178.439 19.108C179.927 20.548 180.671 22.636 180.671 25.372V37H177.431V25.84C177.431 23.872 176.939 22.372 175.955 21.34C174.971 20.284 173.627 19.756 171.923 19.756C170.195 19.756 168.815 20.296 167.783 21.376C166.775 22.456 166.271 24.028 166.271 26.092V37H162.995V17.272H166.271V20.08C166.919 19.072 167.795 18.292 168.899 17.74C170.027 17.188 171.263 16.912 172.607 16.912ZM187.714 14.068C187.09 14.068 186.562 13.852 186.13 13.42C185.698 12.988 185.482 12.46 185.482 11.836C185.482 11.212 185.698 10.684 186.13 10.252C186.562 9.82 187.09 9.604 187.714 9.604C188.314 9.604 188.818 9.82 189.226 10.252C189.658 10.684 189.874 11.212 189.874 11.836C189.874 12.46 189.658 12.988 189.226 13.42C188.818 13.852 188.314 14.068 187.714 14.068ZM189.298 17.272V37H186.022V17.272H189.298ZM212.291 11.908C215.027 11.908 217.391 12.424 219.383 13.456C221.399 14.464 222.935 15.916 223.991 17.812C225.071 19.708 225.611 21.94 225.611 24.508C225.611 27.076 225.071 29.308 223.991 31.204C222.935 33.076 221.399 34.516 219.383 35.524C217.391 36.508 215.027 37 212.291 37H204.479V11.908H212.291ZM212.291 34.3C215.531 34.3 218.003 33.448 219.707 31.744C221.411 30.016 222.263 27.604 222.263 24.508C222.263 21.388 221.399 18.952 219.671 17.2C217.967 15.448 215.507 14.572 212.291 14.572H207.755V34.3H212.291ZM247.932 26.38C247.932 27.004 247.896 27.664 247.824 28.36H232.056C232.176 30.304 232.836 31.828 234.036 32.932C235.26 34.012 236.736 34.552 238.464 34.552C239.88 34.552 241.056 34.228 241.992 33.58C242.952 32.908 243.624 32.02 244.008 30.916H247.536C247.008 32.812 245.952 34.36 244.368 35.56C242.784 36.736 240.816 37.324 238.464 37.324C236.592 37.324 234.912 36.904 233.424 36.064C231.96 35.224 230.808 34.036 229.968 32.5C229.128 30.94 228.708 29.14 228.708 27.1C228.708 25.06 229.116 23.272 229.932 21.736C230.748 20.2 231.888 19.024 233.352 18.208C234.84 17.368 236.544 16.948 238.464 16.948C240.336 16.948 241.992 17.356 243.432 18.172C244.872 18.988 245.976 20.116 246.744 21.556C247.536 22.972 247.932 24.58 247.932 26.38ZM244.548 25.696C244.548 24.448 244.272 23.38 243.72 22.492C243.168 21.58 242.412 20.896 241.452 20.44C240.516 19.96 239.472 19.72 238.32 19.72C236.664 19.72 235.248 20.248 234.072 21.304C232.92 22.36 232.26 23.824 232.092 25.696H244.548ZM259.6 33.976L265.72 17.272H269.212L261.472 37H257.656L249.916 17.272H253.444L259.6 33.976Z" fill="white"/>
<rect width="48" height="48" fill="white"/>
<path d="M8 38.7955L19.75 26.0955L8 13.3956" stroke="#1B2631" stroke-width="2" stroke-linecap="round" stroke-linejoin="round"/>
<path d="M23.6667 43.0288H39.3334" stroke="#1B2631" stroke-width="2" stroke-linecap="round" stroke-linejoin="round"/>
</svg>
