<svg width="64" height="76" viewBox="0 0 64 76" fill="none" xmlns="http://www.w3.org/2000/svg">
<path d="M31.0726 62.848V64.032H28.0326V74H26.5766V64.032H23.5206V62.848H31.0726ZM36.4008 74.112C35.6648 74.112 35.0035 73.984 34.4168 73.728C33.8408 73.4613 33.3875 73.0987 33.0568 72.64C32.7261 72.1707 32.5555 71.632 32.5448 71.024H34.0968C34.1501 71.5467 34.3635 71.9893 34.7368 72.352C35.1208 72.704 35.6755 72.88 36.4008 72.88C37.0941 72.88 37.6381 72.7093 38.0328 72.368C38.4381 72.016 38.6408 71.568 38.6408 71.024C38.6408 70.5973 38.5235 70.2507 38.2888 69.984C38.0541 69.7173 37.7608 69.5147 37.4088 69.376C37.0568 69.2373 36.5821 69.088 35.9848 68.928C35.2488 68.736 34.6568 68.544 34.2088 68.352C33.7715 68.16 33.3928 67.8613 33.0728 67.456C32.7635 67.04 32.6088 66.4853 32.6088 65.792C32.6088 65.184 32.7635 64.6453 33.0728 64.176C33.3821 63.7067 33.8141 63.344 34.3688 63.088C34.9341 62.832 35.5795 62.704 36.3048 62.704C37.3501 62.704 38.2035 62.9653 38.8648 63.488C39.5368 64.0107 39.9155 64.704 40.0008 65.568H38.4008C38.3475 65.1413 38.1235 64.768 37.7288 64.448C37.3341 64.1173 36.8115 63.952 36.1608 63.952C35.5528 63.952 35.0568 64.112 34.6728 64.432C34.2888 64.7413 34.0968 65.1787 34.0968 65.744C34.0968 66.1493 34.2088 66.48 34.4328 66.736C34.6675 66.992 34.9501 67.1893 35.2808 67.328C35.6221 67.456 36.0968 67.6053 36.7048 67.776C37.4408 67.9787 38.0328 68.1813 38.4808 68.384C38.9288 68.576 39.3128 68.88 39.6328 69.296C39.9528 69.7013 40.1128 70.256 40.1128 70.96C40.1128 71.504 39.9688 72.016 39.6808 72.496C39.3928 72.976 38.9661 73.3653 38.4008 73.664C37.8355 73.9627 37.1688 74.112 36.4008 74.112Z" fill="white"/>
<g clip-path="url(#clip0_54_177)">
<path d="M53.7266 0H10.2734C7.361 0 5 2.361 5 5.27344V48.7266C5 51.639 7.361 54 10.2734 54H53.7266C56.639 54 59 51.639 59 48.7266V5.27344C59 2.361 56.639 0 53.7266 0Z" fill="white"/>
<path fill-rule="evenodd" clip-rule="evenodd" d="M38.4272 42.9705V48.2504C39.2855 48.6904 40.3006 49.0203 41.4726 49.2403C42.6445 49.4603 43.8797 49.5703 45.1782 49.5703C46.4437 49.5703 47.6459 49.4493 48.7848 49.2073C49.9238 48.9653 50.9225 48.5666 51.7808 48.0111C52.6391 47.4557 53.3186 46.7296 53.8193 45.8331C54.3199 44.9366 54.5703 43.8285 54.5703 42.5085C54.5703 41.5515 54.4273 40.7128 54.1412 39.9924C53.855 39.2719 53.4424 38.6312 52.9032 38.0702C52.364 37.5092 51.7175 37.0059 50.9637 36.5604C50.2099 36.1149 49.3598 35.6942 48.4135 35.2983C47.7202 35.0122 47.0985 34.7346 46.5483 34.4651C45.998 34.1955 45.5304 33.9205 45.1452 33.6401C44.76 33.3596 44.4629 33.0626 44.2539 32.7491C44.0448 32.4355 43.9402 32.0809 43.9402 31.6848C43.9402 31.3219 44.0338 30.9946 44.2209 30.7031C44.408 30.4116 44.6721 30.1614 45.0132 29.9524C45.3543 29.7435 45.7724 29.5811 46.2676 29.4656C46.7629 29.3502 47.313 29.2925 47.9183 29.2925C48.3584 29.2925 48.8233 29.3255 49.313 29.3914C49.8027 29.4574 50.2951 29.5592 50.7904 29.6966C51.2856 29.8342 51.767 30.0074 52.2347 30.2164C52.7024 30.4254 53.1343 30.6674 53.5304 30.9424V26.009C52.7271 25.701 51.8495 25.4728 50.8977 25.3243C49.9458 25.1758 48.8536 25.1016 47.6212 25.1016C46.3666 25.1016 45.1782 25.2364 44.0558 25.5058C42.9334 25.7753 41.9458 26.196 41.0929 26.768C40.2401 27.34 39.5661 28.0687 39.0709 28.9542C38.5758 29.8396 38.3281 30.8983 38.3281 32.1303C38.3281 33.7033 38.7821 35.0453 39.6899 36.1563C40.5977 37.2672 41.976 38.2076 43.8247 38.9777C44.551 39.2747 45.2278 39.5661 45.855 39.8521C46.4822 40.1381 47.0242 40.4351 47.4808 40.7431C47.9375 41.0511 48.2979 41.3866 48.5621 41.7496C48.8262 42.1125 48.9582 42.525 48.9582 42.9871C48.9582 43.328 48.8756 43.6442 48.7106 43.9357C48.5455 44.2273 48.2951 44.4802 47.9595 44.6947C47.6239 44.9092 47.2057 45.0769 46.7051 45.1979C46.2043 45.319 45.6184 45.3794 44.9471 45.3794C43.8027 45.3794 42.6693 45.1787 41.5468 44.7772C40.4244 44.3758 39.3845 43.7735 38.4272 42.9705ZM29.551 29.9618H36.3242V25.6289H17.4453V29.9618H24.1854V49.2539H29.551V29.9618Z" fill="#1B2631"/>
</g>
<defs>
<clipPath id="clip0_54_177">
<rect width="54" height="54" fill="white" transform="translate(5)"/>
</clipPath>
</defs>
</svg>
