<svg width="64" height="80" viewBox="0 0 64 80" fill="none" xmlns="http://www.w3.org/2000/svg">
<path d="M32 34.0401L46.912 8.87476H38.176L32 19.5468V19.5521L25.8347 8.87476H17.088L32 34.0401Z" fill="white"/>
<path d="M49.2293 8.88525L32 37.9599L14.7707 8.88525H5.31201L32 55.1253L58.688 8.88525H49.2293Z" fill="white"/>
<path d="M15.8933 66.848L11.6853 78H10.0053L5.79731 66.848H7.34931L10.8533 76.464L14.3573 66.848H15.8933ZM25.2658 69.232V78H23.8098V76.704C23.5325 77.152 23.1431 77.504 22.6418 77.76C22.1511 78.0053 21.6071 78.128 21.0098 78.128C20.3271 78.128 19.7138 77.9893 19.1698 77.712C18.6258 77.424 18.1938 76.9973 17.8738 76.432C17.5645 75.8667 17.4098 75.1787 17.4098 74.368V69.232H18.8498V74.176C18.8498 75.04 19.0685 75.7067 19.5058 76.176C19.9431 76.6347 20.5405 76.864 21.2978 76.864C22.0765 76.864 22.6898 76.624 23.1378 76.144C23.5858 75.664 23.8098 74.9653 23.8098 74.048V69.232H25.2658ZM35.7242 73.28C35.7242 73.5573 35.7082 73.8507 35.6762 74.16H28.6682C28.7215 75.024 29.0149 75.7013 29.5482 76.192C30.0922 76.672 30.7482 76.912 31.5162 76.912C32.1455 76.912 32.6682 76.768 33.0842 76.48C33.5109 76.1813 33.8095 75.7867 33.9802 75.296H35.5482C35.3135 76.1387 34.8442 76.8267 34.1402 77.36C33.4362 77.8827 32.5615 78.144 31.5162 78.144C30.6842 78.144 29.9375 77.9573 29.2762 77.584C28.6255 77.2107 28.1135 76.6827 27.7402 76C27.3669 75.3067 27.1802 74.5067 27.1802 73.6C27.1802 72.6933 27.3615 71.8987 27.7242 71.216C28.0869 70.5333 28.5935 70.0107 29.2442 69.648C29.9055 69.2747 30.6629 69.088 31.5162 69.088C32.3482 69.088 33.0842 69.2693 33.7242 69.632C34.3642 69.9947 34.8549 70.496 35.1962 71.136C35.5482 71.7653 35.7242 72.48 35.7242 73.28ZM34.2202 72.976C34.2202 72.4213 34.0975 71.9467 33.8522 71.552C33.6069 71.1467 33.2709 70.8427 32.8442 70.64C32.4282 70.4267 31.9642 70.32 31.4522 70.32C30.7162 70.32 30.0869 70.5547 29.5642 71.024C29.0522 71.4933 28.7589 72.144 28.6842 72.976H34.2202ZM47.5277 66.848V75.088C47.5277 76.0053 47.245 76.7413 46.6797 77.296C46.1144 77.84 45.3677 78.112 44.4397 78.112C43.501 78.112 42.749 77.8347 42.1837 77.28C41.6184 76.7147 41.3357 75.9467 41.3357 74.976H42.7917C42.8024 75.52 42.941 75.9627 43.2077 76.304C43.485 76.6453 43.8957 76.816 44.4397 76.816C44.9837 76.816 45.389 76.656 45.6557 76.336C45.9224 76.0053 46.0557 75.5893 46.0557 75.088V66.848H47.5277ZM53.9321 78.112C53.1961 78.112 52.5347 77.984 51.9481 77.728C51.3721 77.4613 50.9187 77.0987 50.5881 76.64C50.2574 76.1707 50.0867 75.632 50.0761 75.024H51.6281C51.6814 75.5467 51.8947 75.9893 52.2681 76.352C52.6521 76.704 53.2067 76.88 53.9321 76.88C54.6254 76.88 55.1694 76.7093 55.5641 76.368C55.9694 76.016 56.1721 75.568 56.1721 75.024C56.1721 74.5973 56.0547 74.2507 55.8201 73.984C55.5854 73.7173 55.2921 73.5147 54.9401 73.376C54.5881 73.2373 54.1134 73.088 53.5161 72.928C52.7801 72.736 52.1881 72.544 51.7401 72.352C51.3027 72.16 50.9241 71.8613 50.6041 71.456C50.2947 71.04 50.1401 70.4853 50.1401 69.792C50.1401 69.184 50.2947 68.6453 50.6041 68.176C50.9134 67.7067 51.3454 67.344 51.9001 67.088C52.4654 66.832 53.1107 66.704 53.8361 66.704C54.8814 66.704 55.7347 66.9653 56.3961 67.488C57.0681 68.0107 57.4467 68.704 57.5321 69.568H55.9321C55.8787 69.1413 55.6547 68.768 55.2601 68.448C54.8654 68.1173 54.3427 67.952 53.6921 67.952C53.0841 67.952 52.5881 68.112 52.2041 68.432C51.8201 68.7413 51.6281 69.1787 51.6281 69.744C51.6281 70.1493 51.7401 70.48 51.9641 70.736C52.1987 70.992 52.4814 71.1893 52.8121 71.328C53.1534 71.456 53.6281 71.6053 54.2361 71.776C54.9721 71.9787 55.5641 72.1813 56.0121 72.384C56.4601 72.576 56.8441 72.88 57.1641 73.296C57.4841 73.7013 57.6441 74.256 57.6441 74.96C57.6441 75.504 57.5001 76.016 57.2121 76.496C56.9241 76.976 56.4974 77.3653 55.9321 77.664C55.3667 77.9627 54.7001 78.112 53.9321 78.112Z" fill="white"/>
</svg>
